<svg width="771" height="386" viewBox="0 0 771 386" fill="none" xmlns="http://www.w3.org/2000/svg">
<rect x="58.6443" y="7.76174" width="653.711" height="369.977" rx="19.8356" fill="#1C0F31" stroke="#B826BB" stroke-width="15.5235"/>
<rect x="79" y="105" width="177" height="175" rx="26" fill="#491057"/>
<rect x="295" y="105" width="177" height="175" rx="26" fill="#491057"/>
<rect x="512" y="105" width="177" height="175" rx="26" fill="#491057"/>
<rect x="705" y="43" width="54" height="300" rx="11.2114" fill="#B826BB"/>
<path d="M688.639 186.028C683.465 189.016 683.465 196.484 688.639 199.472L735.856 226.733C741.031 229.72 747.499 225.986 747.499 220.011V165.489C747.499 159.514 741.031 155.78 735.856 158.767L688.639 186.028Z" fill="#FB37FF"/>
<rect x="5" y="43" width="54" height="300" rx="11.2114" fill="#B826BB"/>
<path d="M82.3608 186.028C87.5353 189.016 87.5353 196.484 82.3608 199.472L35.1435 226.733C29.969 229.72 23.5009 225.986 23.5009 220.011V165.489C23.5009 159.514 29.969 155.78 35.1435 158.767L82.3608 186.028Z" fill="#FB37FF"/>
</svg>
