<svg width="162" height="28" viewBox="0 0 162 28" fill="none" xmlns="http://www.w3.org/2000/svg">
<g style="mix-blend-mode:hard-light" filter="url(#filter0_f)">
<path d="M12.248 9.724H14.6449V7.32712H12.248V9.724ZM6.484 9.724H4.08713V12.1209H6.484V9.724ZM6.484 6.38V3.98312H4.08713V6.38H6.484ZM22.522 6.38H24.9189V3.98312H22.522V6.38ZM22.522 9.724V12.1209H24.9189V9.724H22.522ZM16.736 9.724V7.32712H14.3391V9.724H16.736ZM16.736 22V24.3969H19.1329V22H16.736ZM12.248 22H9.85113V24.3969H12.248V22ZM12.248 7.32712H6.484V12.1209H12.248V7.32712ZM8.88087 9.724V6.38H4.08713V9.724H8.88087ZM6.484 8.77687H22.522V3.98312H6.484V8.77687ZM20.1251 6.38V9.724H24.9189V6.38H20.1251ZM22.522 7.32712H16.736V12.1209H22.522V7.32712ZM14.3391 9.724V22H19.1329V9.724H14.3391ZM16.736 19.6031H12.248V24.3969H16.736V19.6031ZM14.6449 22V9.724H9.85113V22H14.6449ZM26.4126 21.362L25.3406 23.5058L25.3497 23.5103L26.4126 21.362ZM23.2666 18.48L21.1855 19.6692L21.1908 19.6785L21.1962 19.6877L23.2666 18.48ZM23.2666 9.9L21.1962 8.69228L21.1908 8.70153L21.1855 8.71082L23.2666 9.9ZM26.4126 7.018L25.3497 4.86965L25.3406 4.87417L26.4126 7.018ZM36.4666 7.018L35.3946 9.16185L35.4037 9.16633L36.4666 7.018ZM39.6126 9.9L37.5315 11.0892L37.5368 11.0985L37.5422 11.1077L39.6126 9.9ZM39.6126 18.48L37.5422 17.2723L37.5368 17.2815L37.5315 17.2908L39.6126 18.48ZM36.4666 21.362L35.4037 19.2136L35.3946 19.2182L36.4666 21.362ZM34.8166 17.82L33.0757 16.1724L33.0679 16.1807L33.0601 16.189L34.8166 17.82ZM34.8166 10.56L33.0601 12.191L33.0679 12.1993L33.0757 12.2076L34.8166 10.56ZM28.0626 10.56L26.3217 8.91242L26.3139 8.9207L26.3061 8.92904L28.0626 10.56ZM28.0626 17.82L26.3061 19.451L26.3139 19.4593L26.3217 19.4676L28.0626 17.82ZM31.4506 19.9991C29.7592 19.9991 28.4627 19.7021 27.4754 19.2137L25.3497 23.5103C27.1491 24.4005 29.2113 24.7929 31.4506 24.7929V19.9991ZM27.4845 19.2182C26.4874 18.7196 25.8018 18.0692 25.3369 17.2723L21.1962 19.6877C22.1687 21.3548 23.5804 22.6257 25.3406 23.5058L27.4845 19.2182ZM25.3476 17.2908C24.8794 16.4715 24.6074 15.4632 24.6074 14.19H19.8137C19.8137 16.1728 20.2457 18.0245 21.1855 19.6692L25.3476 17.2908ZM24.6074 14.19C24.6074 12.9168 24.8794 11.9085 25.3476 11.0892L21.1855 8.71082C20.2457 10.3555 19.8137 12.2072 19.8137 14.19H24.6074ZM25.3369 11.1077C25.8018 10.3108 26.4874 9.66036 27.4845 9.16183L25.3406 4.87417C23.5804 5.7543 22.1687 7.0252 21.1962 8.69228L25.3369 11.1077ZM27.4754 9.16633C28.4627 8.67788 29.7592 8.38087 31.4506 8.38087V3.58712C29.2113 3.58712 27.1491 3.97945 25.3497 4.86966L27.4754 9.16633ZM31.4506 8.38087C33.1431 8.38087 34.4275 8.67827 35.3946 9.16183L37.5385 4.87417C35.7483 3.97907 33.6887 3.58712 31.4506 3.58712V8.38087ZM35.4037 9.16633C36.4124 9.66538 37.0865 10.3105 37.5315 11.0892L41.6936 8.71082C40.7306 7.02554 39.3074 5.74929 37.5294 4.86967L35.4037 9.16633ZM37.5422 11.1077C38.0182 11.9238 38.2937 12.9253 38.2937 14.19H43.0874C43.0874 12.1987 42.6442 10.3402 41.6829 8.69228L37.5422 11.1077ZM38.2937 14.19C38.2937 15.4547 38.0182 16.4562 37.5422 17.2723L41.6829 19.6877C42.6442 18.0398 43.0874 16.1813 43.0874 14.19H38.2937ZM37.5315 17.2908C37.0865 18.0695 36.4124 18.7146 35.4037 19.2137L37.5294 23.5103C39.3074 22.6307 40.7306 21.3545 41.6936 19.6692L37.5315 17.2908ZM35.3946 19.2182C34.4275 19.7017 33.1431 19.9991 31.4506 19.9991V24.7929C33.6887 24.7929 35.7483 24.4009 37.5385 23.5058L35.3946 19.2182ZM31.4506 21.4489C33.3736 21.4489 35.2236 20.9041 36.573 19.451L33.0601 16.189C32.8842 16.3786 32.4902 16.6551 31.4506 16.6551V21.4489ZM36.5574 19.4676C37.8258 18.1273 38.3794 16.4311 38.3794 14.608H33.5857C33.5857 15.4249 33.362 15.87 33.0757 16.1724L36.5574 19.4676ZM38.3794 14.608V13.772H33.5857V14.608H38.3794ZM38.3794 13.772C38.3794 11.9489 37.8258 10.2527 36.5574 8.91242L33.0757 12.2076C33.362 12.51 33.5857 12.9551 33.5857 13.772H38.3794ZM36.573 8.92904C35.2236 7.4759 33.3736 6.93112 31.4506 6.93112V11.7249C32.4902 11.7249 32.8842 12.0014 33.0601 12.191L36.573 8.92904ZM31.4506 6.93112C29.5247 6.93112 27.6804 7.47684 26.3217 8.91242L29.8034 12.2076C29.9994 12.0005 30.4138 11.7249 31.4506 11.7249V6.93112ZM26.3061 8.92904C25.06 10.271 24.5217 11.9615 24.5217 13.772H29.3154C29.3154 12.9425 29.5398 12.4917 29.819 12.191L26.3061 8.92904ZM24.5217 13.772V14.608H29.3154V13.772H24.5217ZM24.5217 14.608C24.5217 16.4185 25.06 18.109 26.3061 19.451L29.819 16.189C29.5398 15.8883 29.3154 15.4375 29.3154 14.608H24.5217ZM26.3217 19.4676C27.6804 20.9032 29.5247 21.4489 31.4506 21.4489V16.6551C30.4138 16.6551 29.9994 16.3795 29.8034 16.1724L26.3217 19.4676ZM55.8219 7.062L54.6921 9.17588V9.17588L55.8219 7.062ZM57.7799 8.932L59.8586 7.73867V7.73867L57.7799 8.932ZM57.7799 14.256L59.8586 15.4493V15.4493L57.7799 14.256ZM55.8219 16.126L54.6921 14.0121V14.0121L55.8219 16.126ZM46.3179 16.808V14.4111H43.921V16.808H46.3179ZM46.3179 22V24.3969H48.7148V22H46.3179ZM41.8299 22H39.433V24.3969H41.8299V22ZM41.8299 6.38V3.98312H39.433V6.38H41.8299ZM53.3579 10.186L51.8864 12.078L51.9086 12.0953L51.9312 12.112L53.3579 10.186ZM46.3179 9.724V7.32712H43.921V9.724H46.3179ZM46.3179 13.464H43.921V15.8609H46.3179V13.464ZM53.3359 13.024L54.7626 14.95L54.7683 14.9458L54.774 14.9415L53.3359 13.024ZM52.8299 8.77687C53.653 8.77687 54.2483 8.93869 54.6921 9.17588L56.9518 4.94812C55.6942 4.27597 54.2949 3.98312 52.8299 3.98312V8.77687ZM54.6921 9.17588C55.1697 9.43117 55.4831 9.74536 55.7012 10.1253L59.8586 7.73867C59.1674 6.53464 58.1754 5.60216 56.9518 4.94812L54.6921 9.17588ZM55.7012 10.1253C55.9316 10.5267 56.065 10.9972 56.065 11.594H60.8588C60.8588 10.2255 60.5375 8.92133 59.8586 7.73867L55.7012 10.1253ZM56.065 11.594C56.065 12.1908 55.9316 12.6613 55.7012 13.0627L59.8586 15.4493C60.5375 14.2667 60.8588 12.9625 60.8588 11.594H56.065ZM55.7012 13.0627C55.4831 13.4426 55.1697 13.7568 54.6921 14.0121L56.9518 18.2399C58.1754 17.5858 59.1674 16.6534 59.8586 15.4493L55.7012 13.0627ZM54.6921 14.0121C54.2483 14.2493 53.653 14.4111 52.8299 14.4111V19.2049C54.2949 19.2049 55.6942 18.912 56.9518 18.2399L54.6921 14.0121ZM52.8299 14.4111H46.3179V19.2049H52.8299V14.4111ZM43.921 16.808V22H48.7148V16.808H43.921ZM46.3179 19.6031H41.8299V24.3969H46.3179V19.6031ZM44.2268 22V6.38H39.433V22H44.2268ZM41.8299 8.77687H52.8299V3.98312H41.8299V8.77687ZM56.3488 11.462C56.3488 10.2593 55.8771 9.06922 54.7846 8.25997L51.9312 12.112C51.8249 12.0332 51.7087 11.9046 51.6305 11.7366C51.5568 11.5784 51.555 11.4679 51.555 11.462H56.3488ZM54.8295 8.29402C53.8723 7.54955 52.7344 7.32712 51.7079 7.32712V12.1209C51.89 12.1209 51.9797 12.1413 52.0022 12.1476C52.0189 12.1523 51.9655 12.1395 51.8864 12.078L54.8295 8.29402ZM51.7079 7.32712H46.3179V12.1209H51.7079V7.32712ZM43.921 9.724V13.464H48.7148V9.724H43.921ZM46.3179 15.8609H51.7079V11.0671H46.3179V15.8609ZM51.7079 15.8609C52.7113 15.8609 53.818 15.6498 54.7626 14.95L51.9092 11.098C51.9832 11.0432 52.0292 11.034 52.0066 11.0401C51.979 11.0476 51.8871 11.0671 51.7079 11.0671V15.8609ZM54.774 14.9415C55.8458 14.1377 56.3488 12.9629 56.3488 11.726H51.555C51.555 11.7071 51.5597 11.5942 51.6325 11.4409C51.7084 11.2809 51.8151 11.1685 51.8978 11.1065L54.774 14.9415ZM56.3488 11.726V11.462H51.555V11.726H56.3488ZM76.7628 19.338L78.9971 18.4702L78.4032 16.9411H76.7628V19.338ZM68.7548 19.338V16.9411H67.1271L66.5269 18.4542L68.7548 19.338ZM67.6988 22V24.3969H69.3266L69.9268 22.8838L67.6988 22ZM63.2328 22L61.0063 21.1125L59.6972 24.3969H63.2328V22ZM69.4588 6.38V3.98312H67.8339L67.2323 5.49253L69.4588 6.38ZM76.1908 6.38L78.4163 5.48982L77.8136 3.98312H76.1908V6.38ZM82.4388 22V24.3969H85.9791L84.6643 21.1098L82.4388 22ZM77.7968 22L75.5626 22.8678L76.1565 24.3969H77.7968V22ZM75.4648 15.994V18.3909H78.982L77.6956 15.1174L75.4648 15.994ZM72.7588 9.108L74.9896 8.23136L72.7588 2.55458L70.528 8.23136L72.7588 9.108ZM70.0528 15.994L67.822 15.1174L66.5356 18.3909H70.0528V15.994ZM76.7628 16.9411H68.7548V21.7349H76.7628V16.9411ZM66.5269 18.4542L65.4709 21.1162L69.9268 22.8838L70.9828 20.2218L66.5269 18.4542ZM67.6988 19.6031H63.2328V24.3969H67.6988V19.6031ZM65.4594 22.8875L71.6853 7.26747L67.2323 5.49253L61.0063 21.1125L65.4594 22.8875ZM69.4588 8.77687H76.1908V3.98312H69.4588V8.77687ZM73.9654 7.27018L80.2134 22.8902L84.6643 21.1098L78.4163 5.48982L73.9654 7.27018ZM82.4388 19.6031H77.7968V24.3969H82.4388V19.6031ZM80.0311 21.1322L78.9971 18.4702L74.5286 20.2058L75.5626 22.8678L80.0311 21.1322ZM77.6956 15.1174L74.9896 8.23136L70.528 9.98464L73.234 16.8706L77.6956 15.1174ZM70.528 8.23136L67.822 15.1174L72.2836 16.8706L74.9896 9.98464L70.528 8.23136ZM70.0528 18.3909H75.4648V13.5971H70.0528V18.3909ZM85.3437 21.362L84.2718 23.5058L84.2808 23.5103L85.3437 21.362ZM82.2197 18.48L80.1386 19.6692V19.6692L82.2197 18.48ZM82.2197 9.9L80.1386 8.71082V8.71082L82.2197 9.9ZM85.3437 7.018L84.2808 4.86965L84.2718 4.87417L85.3437 7.018ZM94.9357 6.776L94.0369 8.99798L94.0519 9.00404L94.0669 9.0099L94.9357 6.776ZM98.0597 8.998L96.177 10.4814L96.1838 10.4901L96.1908 10.4988L98.0597 8.998ZM99.4457 12.386V14.7829H102.13L101.827 12.1154L99.4457 12.386ZM94.7597 12.386L92.428 12.9412L92.8665 14.7829H94.7597V12.386ZM93.3077 10.186L91.8756 12.108L91.8878 12.1171L91.9002 12.1261L93.3077 10.186ZM86.9937 10.582L85.2529 8.93442L85.252 8.93532L86.9937 10.582ZM86.9937 17.82L85.2373 19.451L85.2524 19.4672L85.2678 19.4832L86.9937 17.82ZM93.3957 18.128L91.9117 16.2458L91.9027 16.2528L91.8939 16.2599L93.3957 18.128ZM94.8257 15.73V13.3331H92.8436L92.4715 15.2799L94.8257 15.73ZM99.4897 15.73L101.88 15.9118L102.076 13.3331H99.4897V15.73ZM98.1697 19.272L96.2688 17.8119L96.2657 17.816L98.1697 19.272ZM95.0237 21.582L94.1209 19.3616L94.1123 19.3652L95.0237 21.582ZM90.3817 19.9991C88.6903 19.9991 87.3939 19.7021 86.4065 19.2137L84.2808 23.5103C86.0802 24.4005 88.1424 24.7929 90.3817 24.7929V19.9991ZM86.4156 19.2182C85.422 18.7214 84.7497 18.0764 84.3008 17.2908L80.1386 19.6692C81.0977 21.3476 82.508 22.624 84.2718 23.5058L86.4156 19.2182ZM84.3008 17.2908C83.8326 16.4715 83.5606 15.4632 83.5606 14.19H78.7668C78.7668 16.1728 79.1988 18.0245 80.1386 19.6692L84.3008 17.2908ZM83.5606 14.19C83.5606 12.9168 83.8326 11.9085 84.3008 11.0892L80.1386 8.71082C79.1988 10.3555 78.7668 12.2072 78.7668 14.19H83.5606ZM84.3008 11.0892C84.7497 10.3036 85.422 9.65863 86.4156 9.16183L84.2718 4.87417C82.508 5.75604 81.0977 7.03241 80.1386 8.71082L84.3008 11.0892ZM86.4065 9.16633C87.3939 8.67788 88.6903 8.38087 90.3817 8.38087V3.58712C88.1424 3.58712 86.0802 3.97945 84.2808 4.86966L86.4065 9.16633ZM90.3817 8.38087C91.8727 8.38087 93.0744 8.60865 94.0369 8.99798L95.8345 4.55402C94.1863 3.88735 92.352 3.58712 90.3817 3.58712V8.38087ZM94.0669 9.0099C95.0485 9.39162 95.7167 9.89717 96.177 10.4814L99.9424 7.51464C98.8773 6.16283 97.4629 5.18705 95.8044 4.5421L94.0669 9.0099ZM96.1908 10.4988C96.6709 11.0966 96.9662 11.7943 97.0641 12.6566L101.827 12.1154C101.632 10.3963 101.003 8.83537 99.9286 7.49723L96.1908 10.4988ZM99.4457 9.98912H94.7597V14.7829H99.4457V9.98912ZM97.0914 11.8308C96.7427 10.3666 95.9408 9.13506 94.7152 8.24592L91.9002 12.1261C92.1706 12.3223 92.3366 12.5574 92.428 12.9412L97.0914 11.8308ZM94.7398 8.26399C93.4721 7.31943 91.9505 6.95312 90.3817 6.95312V11.7469C91.2182 11.7469 91.6473 11.9379 91.8756 12.108L94.7398 8.26399ZM90.3817 6.95312C88.4558 6.95312 86.6115 7.49884 85.2529 8.93442L88.7345 12.2296C88.9305 12.0225 89.3449 11.7469 90.3817 11.7469V6.95312ZM85.252 8.93532C83.9909 10.2691 83.4528 11.9628 83.4528 13.772H88.2466C88.2466 12.9412 88.4711 12.5082 88.7354 12.2287L85.252 8.93532ZM83.4528 13.772V14.608H88.2466V13.772H83.4528ZM83.4528 14.608C83.4528 16.4185 83.9912 18.109 85.2373 19.451L88.7501 16.189C88.4709 15.8883 88.2466 15.4375 88.2466 14.608H83.4528ZM85.2678 19.4832C86.629 20.8957 88.468 21.4269 90.3817 21.4269V16.6331C89.3327 16.6331 88.9131 16.3576 88.7196 16.1568L85.2678 19.4832ZM90.3817 21.4269C92.0164 21.4269 93.6062 21.0341 94.8975 19.9961L91.8939 16.2599C91.6892 16.4245 91.2696 16.6331 90.3817 16.6331V21.4269ZM94.8797 20.0102C96.1173 19.0344 96.8863 17.7158 97.1799 16.1801L92.4715 15.2799C92.3837 15.7388 92.1994 16.0189 91.9117 16.2458L94.8797 20.0102ZM94.8257 18.1269H99.4897V13.3331H94.8257V18.1269ZM97.0997 15.5482C97.0302 16.4624 96.7449 17.1922 96.2688 17.8119L100.071 20.7321C101.149 19.3278 101.744 17.6962 101.88 15.9118L97.0997 15.5482ZM96.2657 17.816C95.799 18.4263 95.119 18.9558 94.1209 19.3616L95.9265 23.8024C97.5977 23.1229 99.015 22.1123 100.074 20.728L96.2657 17.816ZM94.1123 19.3652C93.1425 19.7638 91.9173 19.9991 90.3817 19.9991V24.7929C92.3954 24.7929 94.2648 24.4855 95.9351 23.7988L94.1123 19.3652ZM105.34 9.724H107.737V7.32712H105.34V9.724ZM99.5758 9.724H97.1789V12.1209H99.5758V9.724ZM99.5758 6.38V3.98312H97.1789V6.38H99.5758ZM115.614 6.38H118.011V3.98312H115.614V6.38ZM115.614 9.724V12.1209H118.011V9.724H115.614ZM109.828 9.724V7.32712H107.431V9.724H109.828ZM109.828 22V24.3969H112.225V22H109.828ZM105.34 22H102.943V24.3969H105.34V22ZM105.34 7.32712H99.5758V12.1209H105.34V7.32712ZM101.973 9.724V6.38H97.1789V9.724H101.973ZM99.5758 8.77687H115.614V3.98312H99.5758V8.77687ZM113.217 6.38V9.724H118.011V6.38H113.217ZM115.614 7.32712H109.828V12.1209H115.614V7.32712ZM107.431 9.724V22H112.225V9.724H107.431ZM109.828 19.6031H105.34V24.3969H109.828V19.6031ZM107.737 22V9.724H102.943V22H107.737ZM116.877 6.38V3.98312H114.481V6.38H116.877ZM121.365 6.38H123.762V3.98312H121.365V6.38ZM121.365 22V24.3969H123.762V22H121.365ZM116.877 22H114.481V24.3969H116.877V22ZM116.877 8.77687H121.365V3.98312H116.877V8.77687ZM118.969 6.38V22H123.762V6.38H118.969ZM121.365 19.6031H116.877V24.3969H121.365V19.6031ZM119.274 22V6.38H114.481V22H119.274ZM140.867 6.38L143.094 7.26476L144.398 3.98312H140.867V6.38ZM134.663 22V24.3969H136.29L136.89 22.8848L134.663 22ZM128.305 22L126.078 22.8875L126.68 24.3969H128.305V22ZM122.079 6.38V3.98312H118.543L119.852 7.26747L122.079 6.38ZM126.699 6.38L128.931 5.50763L128.335 3.98312H126.699V6.38ZM131.539 18.766L129.306 19.6384L131.533 25.3385L133.77 19.6418L131.539 18.766ZM136.401 6.38V3.98312H134.766L134.169 5.50419L136.401 6.38ZM138.639 5.49523L132.435 21.1152L136.89 22.8848L143.094 7.26476L138.639 5.49523ZM134.663 19.6031H128.305V24.3969H134.663V19.6031ZM130.531 21.1125L124.305 5.49253L119.852 7.26747L126.078 22.8875L130.531 21.1125ZM122.079 8.77687H126.699V3.98312H122.079V8.77687ZM124.466 7.25237L129.306 19.6384L133.771 17.8936L128.931 5.50763L124.466 7.25237ZM133.77 19.6418L138.632 7.25581L134.169 5.50419L129.307 17.8902L133.77 19.6418ZM136.401 8.77687H140.867V3.98312H136.401V8.77687ZM145.941 9.724V7.32712H143.544V9.724H145.941ZM145.941 12.496H143.544V14.8929H145.941V12.496ZM155.247 12.496H157.644V10.0991H155.247V12.496ZM155.247 15.84V18.2369H157.644V15.84H155.247ZM145.941 15.84V13.4431H143.544V15.84H145.941ZM145.941 18.656H143.544V21.0529H145.941V18.656ZM155.819 18.656H158.216V16.2591H155.819V18.656ZM155.819 22V24.3969H158.216V22H155.819ZM141.453 22H139.056V24.3969H141.453V22ZM141.453 6.38V3.98312H139.056V6.38H141.453ZM155.819 6.38H158.216V3.98312H155.819V6.38ZM155.819 9.724V12.1209H158.216V9.724H155.819ZM143.544 9.724V12.496H148.338V9.724H143.544ZM145.941 14.8929H155.247V10.0991H145.941V14.8929ZM152.85 12.496V15.84H157.644V12.496H152.85ZM155.247 13.4431H145.941V18.2369H155.247V13.4431ZM143.544 15.84V18.656H148.338V15.84H143.544ZM145.941 21.0529H155.819V16.2591H145.941V21.0529ZM153.422 18.656V22H158.216V18.656H153.422ZM155.819 19.6031H141.453V24.3969H155.819V19.6031ZM143.85 22V6.38H139.056V22H143.85ZM141.453 8.77687H155.819V3.98312H141.453V8.77687ZM153.422 6.38V9.724H158.216V6.38H153.422ZM155.819 7.32712H145.941V12.1209H155.819V7.32712Z" fill="#004DA8"/>
</g>
<g style="mix-blend-mode:hard-light" filter="url(#filter1_f)">
<path d="M12.248 9.724H15.3824V6.58962H12.248V9.724ZM6.484 9.724H3.34962V12.8584H6.484V9.724ZM6.484 6.38V3.24562H3.34962V6.38H6.484ZM22.522 6.38H25.6564V3.24562H22.522V6.38ZM22.522 9.724V12.8584H25.6564V9.724H22.522ZM16.736 9.724V6.58962H13.6016V9.724H16.736ZM16.736 22V25.1344H19.8704V22H16.736ZM12.248 22H9.11363V25.1344H12.248V22ZM12.248 6.58962H6.484V12.8584H12.248V6.58962ZM9.61838 9.724V6.38H3.34962V9.724H9.61838ZM6.484 9.51437H22.522V3.24562H6.484V9.51437ZM19.3876 6.38V9.724H25.6564V6.38H19.3876ZM22.522 6.58962H16.736V12.8584H22.522V6.58962ZM13.6016 9.724V22H19.8704V9.724H13.6016ZM16.736 18.8656H12.248V25.1344H16.736V18.8656ZM15.3824 22V9.724H9.11363V22H15.3824ZM26.4126 21.362L25.0108 24.1655L25.0227 24.1714L26.4126 21.362ZM23.2666 18.48L20.5452 20.0351L20.5521 20.0472L20.5592 20.0593L23.2666 18.48ZM23.2666 9.9L20.5592 8.32068L20.5521 8.33277L20.5452 8.34491L23.2666 9.9ZM26.4126 7.018L25.0227 4.20861L25.0108 4.21453L26.4126 7.018ZM36.4666 7.018L35.0648 9.82149L35.0767 9.82736L36.4666 7.018ZM39.6126 9.9L36.8912 11.4551L36.8981 11.4672L36.9052 11.4793L39.6126 9.9ZM39.6126 18.48L36.9052 16.9007L36.8981 16.9128L36.8912 16.9249L39.6126 18.48ZM36.4666 21.362L35.0767 18.5526L35.0648 18.5585L36.4666 21.362ZM34.8166 17.82L32.5401 15.6655L32.5298 15.6763L32.5197 15.6872L34.8166 17.82ZM34.8166 10.56L32.5197 12.6928L32.5298 12.7037L32.5401 12.7145L34.8166 10.56ZM28.0626 10.56L25.7861 8.40548L25.7758 8.4163L25.7657 8.42721L28.0626 10.56ZM28.0626 17.82L25.7657 19.9528L25.7758 19.9637L25.7861 19.9745L28.0626 17.82ZM31.4506 19.2616C29.8434 19.2616 28.6648 18.9793 27.8025 18.5526L25.0227 24.1714C26.947 25.1234 29.127 25.5304 31.4506 25.5304V19.2616ZM27.8143 18.5585C26.9346 18.1187 26.3607 17.5637 25.974 16.9007L20.5592 20.0593C21.6097 21.8603 23.1331 23.2266 25.0108 24.1655L27.8143 18.5585ZM25.988 16.9249C25.5923 16.2326 25.3449 15.354 25.3449 14.19H19.0762C19.0762 16.282 19.5328 18.2634 20.5452 20.0351L25.988 16.9249ZM25.3449 14.19C25.3449 13.026 25.5923 12.1474 25.988 11.4551L20.5452 8.34491C19.5328 10.1166 19.0762 12.098 19.0762 14.19H25.3449ZM25.974 11.4793C26.3607 10.8163 26.9346 10.2613 27.8143 9.82147L25.0108 4.21453C23.1331 5.15337 21.6097 6.51972 20.5592 8.32068L25.974 11.4793ZM27.8025 9.82736C28.6648 9.40071 29.8434 9.11837 31.4506 9.11837V2.84962C29.127 2.84962 26.947 3.25662 25.0227 4.20864L27.8025 9.82736ZM31.4506 9.11837C33.0592 9.11837 34.2243 9.40122 35.0648 9.82147L37.8683 4.21453C35.9515 3.25611 33.7726 2.84962 31.4506 2.84962V9.11837ZM35.0767 9.82736C35.967 10.2679 36.5259 10.8158 36.8912 11.4551L42.334 8.34491C41.2913 6.52017 39.7528 5.14681 37.8565 4.20864L35.0767 9.82736ZM36.9052 11.4793C37.3065 12.1674 37.5562 13.0371 37.5562 14.19H43.8249C43.8249 12.0869 43.3559 10.0966 42.32 8.32068L36.9052 11.4793ZM37.5562 14.19C37.5562 15.3429 37.3065 16.2126 36.9052 16.9007L42.32 20.0593C43.3559 18.2834 43.8249 16.2931 43.8249 14.19H37.5562ZM36.8912 16.9249C36.5259 17.5642 35.967 18.1121 35.0767 18.5526L37.8565 24.1714C39.7528 23.2332 41.2913 21.8598 42.334 20.0351L36.8912 16.9249ZM35.0648 18.5585C34.2243 18.9788 33.0592 19.2616 31.4506 19.2616V25.5304C33.7726 25.5304 35.9515 25.1239 37.8683 24.1655L35.0648 18.5585ZM31.4506 22.1864C33.5095 22.1864 35.5835 21.6003 37.1134 19.9528L32.5197 15.6872C32.4973 15.7114 32.4534 15.7539 32.3257 15.8006C32.1815 15.8534 31.9086 15.9176 31.4506 15.9176V22.1864ZM37.093 19.9745C38.5126 18.4746 39.1169 16.5859 39.1169 14.608H32.8482C32.8482 15.2701 32.6752 15.5227 32.5401 15.6655L37.093 19.9745ZM39.1169 14.608V13.772H32.8482V14.608H39.1169ZM39.1169 13.772C39.1169 11.7941 38.5126 9.90537 37.093 8.40548L32.5401 12.7145C32.6752 12.8573 32.8482 13.1099 32.8482 13.772H39.1169ZM37.1134 8.42721C35.5835 6.77966 33.5095 6.19362 31.4506 6.19362V12.4624C31.9086 12.4624 32.1815 12.5266 32.3257 12.5794C32.4534 12.6261 32.4973 12.6686 32.5197 12.6928L37.1134 8.42721ZM31.4506 6.19362C29.3879 6.19362 27.3236 6.7809 25.7861 8.40548L30.339 12.7145C30.3562 12.6964 30.5505 12.4624 31.4506 12.4624V6.19362ZM25.7657 8.42721C24.3708 9.92937 23.7842 11.8105 23.7842 13.772H30.0529C30.0529 13.0935 30.2289 12.8333 30.3594 12.6928L25.7657 8.42721ZM23.7842 13.772V14.608H30.0529V13.772H23.7842ZM23.7842 14.608C23.7842 16.5695 24.3708 18.4506 25.7657 19.9528L30.3594 15.6872C30.2289 15.5467 30.0529 15.2865 30.0529 14.608H23.7842ZM25.7861 19.9745C27.3236 21.5991 29.3879 22.1864 31.4506 22.1864V15.9176C30.5505 15.9176 30.3562 15.6836 30.339 15.6655L25.7861 19.9745ZM55.8219 7.062L54.3444 9.8263V9.8263L55.8219 7.062ZM57.7799 8.932L60.4982 7.3715L60.4982 7.37149L57.7799 8.932ZM57.7799 14.256L60.4982 15.8165V15.8165L57.7799 14.256ZM55.8219 16.126L54.3444 13.3617V13.3617L55.8219 16.126ZM46.3179 16.808V13.6736H43.1835V16.808H46.3179ZM46.3179 22V25.1344H49.4523V22H46.3179ZM41.8299 22H38.6955V25.1344H41.8299V22ZM41.8299 6.38V3.24562H38.6955V6.38H41.8299ZM53.3579 10.186L51.4336 12.6601L51.4627 12.6827L51.4923 12.7047L53.3579 10.186ZM46.3179 9.724V6.58962H43.1835V9.724H46.3179ZM46.3179 13.464H43.1835V16.5984H46.3179V13.464ZM53.3359 13.024L55.2016 15.5426L55.2091 15.5371L55.2165 15.5315L53.3359 13.024ZM52.8299 9.51437C53.5542 9.51437 54.0259 9.65604 54.3444 9.8263L57.2994 4.2977C55.9166 3.55863 54.3936 3.24562 52.8299 3.24562V9.51437ZM54.3444 9.8263C54.7073 10.0202 54.9163 10.2393 55.0616 10.4925L60.4982 7.37149C59.7342 6.04068 58.6379 5.01308 57.2994 4.29769L54.3444 9.8263ZM55.0616 10.4925C55.223 10.7737 55.3275 11.1159 55.3275 11.594H61.5963C61.5963 10.1068 61.2462 8.67435 60.4982 7.3715L55.0616 10.4925ZM55.3275 11.594C55.3275 12.0721 55.223 12.4143 55.0616 12.6955L60.4982 15.8165C61.2462 14.5137 61.5963 13.0812 61.5963 11.594H55.3275ZM55.0616 12.6955C54.9163 12.9487 54.7073 13.1677 54.3444 13.3617L57.2994 18.8903C58.6379 18.1749 59.7342 17.1473 60.4982 15.8165L55.0616 12.6955ZM54.3444 13.3617C54.0259 13.532 53.5542 13.6736 52.8299 13.6736V19.9424C54.3936 19.9424 55.9166 19.6294 57.2994 18.8903L54.3444 13.3617ZM52.8299 13.6736H46.3179V19.9424H52.8299V13.6736ZM43.1835 16.808V22H49.4523V16.808H43.1835ZM46.3179 18.8656H41.8299V25.1344H46.3179V18.8656ZM44.9643 22V6.38H38.6955V22H44.9643ZM41.8299 9.51437H52.8299V3.24562H41.8299V9.51437ZM57.0863 11.462C57.0863 10.0607 56.5304 8.63534 55.2236 7.66735L51.4923 12.7047C51.2923 12.5565 51.0946 12.333 50.9619 12.0478C50.8351 11.7756 50.8175 11.5555 50.8175 11.462H57.0863ZM55.2822 7.71187C54.1524 6.8331 52.8337 6.58962 51.7079 6.58962V12.8584C51.8377 12.8584 51.8585 12.8732 51.8033 12.8578C51.7405 12.8402 51.598 12.788 51.4336 12.6601L55.2822 7.71187ZM51.7079 6.58962H46.3179V12.8584H51.7079V6.58962ZM43.1835 9.724V13.464H49.4523V9.724H43.1835ZM46.3179 16.5984H51.7079V10.3296H46.3179V16.5984ZM51.7079 16.5984C52.8079 16.5984 54.0881 16.3674 55.2016 15.5426L51.4703 10.5054C51.6279 10.3886 51.7602 10.3428 51.8141 10.3282C51.8615 10.3154 51.8362 10.3296 51.7079 10.3296V16.5984ZM55.2165 15.5315C56.4917 14.5751 57.0863 13.1719 57.0863 11.726H50.8175C50.8175 11.6156 50.8395 11.3917 50.9662 11.1247C51.0971 10.849 51.2839 10.645 51.4553 10.5165L55.2165 15.5315ZM57.0863 11.726V11.462H50.8175V11.726H57.0863ZM76.7628 19.338L79.6845 18.2031L78.9079 16.2036H76.7628V19.338ZM68.7548 19.338V16.2036H66.6262L65.8413 18.1822L68.7548 19.338ZM67.6988 22V25.1344H69.8274L70.6123 23.1558L67.6988 22ZM63.2328 22L60.3212 20.8395L58.6093 25.1344H63.2328V22ZM69.4588 6.38V3.24562H67.334L66.5472 5.21946L69.4588 6.38ZM76.1908 6.38L79.101 5.21592L78.3129 3.24562H76.1908V6.38ZM82.4388 22V25.1344H87.0684L85.349 20.8359L82.4388 22ZM77.7968 22L74.8751 23.1349L75.6518 25.1344H77.7968V22ZM75.4648 15.994V19.1284H80.0643L78.382 14.8476L75.4648 15.994ZM72.7588 9.108L75.676 7.96162L72.7588 0.538148L69.8416 7.96162L72.7588 9.108ZM70.0528 15.994L67.1356 14.8476L65.4534 19.1284H70.0528V15.994ZM76.7628 16.2036H68.7548V22.4724H76.7628V16.2036ZM65.8413 18.1822L64.7853 20.8442L70.6123 23.1558L71.6683 20.4938L65.8413 18.1822ZM67.6988 18.8656H63.2328V25.1344H67.6988V18.8656ZM66.1444 23.1605L72.3704 7.54054L66.5472 5.21946L60.3212 20.8395L66.1444 23.1605ZM69.4588 9.51437H76.1908V3.24562H69.4588V9.51437ZM73.2806 7.54408L79.5286 23.1641L85.349 20.8359L79.101 5.21592L73.2806 7.54408ZM82.4388 18.8656H77.7968V25.1344H82.4388V18.8656ZM80.7185 20.8651L79.6845 18.2031L73.8411 20.4729L74.8751 23.1349L80.7185 20.8651ZM78.382 14.8476L75.676 7.96162L69.8416 10.2544L72.5476 17.1404L78.382 14.8476ZM69.8416 7.96162L67.1356 14.8476L72.97 17.1404L75.676 10.2544L69.8416 7.96162ZM70.0528 19.1284H75.4648V12.8596H70.0528V19.1284ZM85.3437 21.362L83.9419 24.1655L83.9538 24.1714L85.3437 21.362ZM82.2197 18.48L79.4983 20.0351L82.2197 18.48ZM82.2197 9.9L79.4983 8.34491L82.2197 9.9ZM85.3437 7.018L83.9538 4.20861L83.9419 4.21453L85.3437 7.018ZM94.9357 6.776L93.7604 9.68167L93.78 9.68959L93.7996 9.69725L94.9357 6.776ZM98.0597 8.998L95.5977 10.9378L95.6067 10.9492L95.6158 10.9605L98.0597 8.998ZM99.4457 12.386V15.5204H102.956L102.56 12.0321L99.4457 12.386ZM94.7597 12.386L91.7105 13.112L92.284 15.5204H94.7597V12.386ZM93.3077 10.186L91.435 12.6994L91.451 12.7113L91.4671 12.723L93.3077 10.186ZM86.9937 10.582L84.7172 8.42748L84.7161 8.42865L86.9937 10.582ZM86.9937 17.82L84.6968 19.9528L84.7166 19.974L84.7367 19.9949L86.9937 17.82ZM93.3957 18.128L91.455 15.6667L91.4434 15.6759L91.4318 15.6851L93.3957 18.128ZM94.8257 15.73V12.5956H92.2338L91.7471 15.1414L94.8257 15.73ZM99.4897 15.73L102.615 15.9678L102.872 12.5956H99.4897V15.73ZM98.1697 19.272L95.684 17.3627L95.6799 17.368L98.1697 19.272ZM95.0237 21.582L93.8431 18.6784L93.8319 18.683L95.0237 21.582ZM90.3817 19.2616C88.7746 19.2616 87.596 18.9793 86.7336 18.5526L83.9538 24.1714C85.8781 25.1234 88.0582 25.5304 90.3817 25.5304V19.2616ZM86.7454 18.5585C85.8703 18.121 85.3115 17.5732 84.9411 16.9249L79.4983 20.0351C80.5359 21.8508 82.0597 23.2244 83.942 24.1655L86.7454 18.5585ZM84.9411 16.9249C84.5455 16.2326 84.2981 15.354 84.2981 14.19H78.0293C78.0293 16.282 78.4859 18.2634 79.4983 20.0351L84.9411 16.9249ZM84.2981 14.19C84.2981 13.026 84.5455 12.1474 84.9411 11.4551L79.4983 8.34491C78.4859 10.1166 78.0293 12.098 78.0293 14.19H84.2981ZM84.9411 11.4551C85.3115 10.8068 85.8703 10.259 86.7454 9.82147L83.9419 4.21453C82.0597 5.15564 80.5359 6.52915 79.4983 8.34491L84.9411 11.4551ZM86.7336 9.82736C87.596 9.40071 88.7746 9.11837 90.3817 9.11837V2.84962C88.0582 2.84962 85.8781 3.25662 83.9538 4.20864L86.7336 9.82736ZM90.3817 9.11837C91.799 9.11837 92.9033 9.335 93.7604 9.68167L96.111 3.87033C94.3574 3.16099 92.4257 2.84962 90.3817 2.84962V9.11837ZM93.7996 9.69725C94.6771 10.0385 95.2304 10.4717 95.5977 10.9378L100.522 7.05822C99.3636 5.58832 97.8343 4.54019 96.0717 3.85475L93.7996 9.69725ZM95.6158 10.9605C96.0044 11.4445 96.2483 12.0094 96.3314 12.7399L102.56 12.0321C102.35 10.1813 101.67 8.48748 100.504 7.03546L95.6158 10.9605ZM99.4457 9.25162H94.7597V15.5204H99.4457V9.25162ZM97.8088 11.66C97.4206 10.0295 96.5208 8.64472 95.1483 7.64897L91.4671 12.723C91.5906 12.8126 91.6588 12.8945 91.7105 13.112L97.8088 11.66ZM95.1804 7.6726C93.7528 6.6089 92.0632 6.21562 90.3817 6.21562V12.4844C91.1055 12.4844 91.3666 12.6484 91.435 12.6994L95.1804 7.6726ZM90.3817 6.21562C88.319 6.21562 86.2548 6.8029 84.7172 8.42748L89.2702 12.7365C89.2873 12.7184 89.4817 12.4844 90.3817 12.4844V6.21562ZM84.7161 8.42865C83.3017 9.92468 82.7153 11.8123 82.7153 13.772H88.9841C88.9841 13.0917 89.1604 12.8527 89.2713 12.7353L84.7161 8.42865ZM82.7153 13.772V14.608H88.9841V13.772H82.7153ZM82.7153 14.608C82.7153 16.5695 83.302 18.4506 84.6968 19.9528L89.2905 15.6872C89.1601 15.5467 88.9841 15.2865 88.9841 14.608H82.7153ZM84.7367 19.9949C86.2775 21.5939 88.3349 22.1644 90.3817 22.1644V15.8956C89.4658 15.8956 89.2645 15.6594 89.2507 15.6451L84.7367 19.9949ZM90.3817 22.1644C92.1314 22.1644 93.9011 21.7433 95.3596 20.5709L91.4318 15.6851C91.3943 15.7153 91.1547 15.8956 90.3817 15.8956V22.1644ZM95.3363 20.5893C96.7201 19.4983 97.579 18.02 97.9043 16.3186L91.7471 15.1414C91.691 15.4347 91.5967 15.555 91.455 15.6667L95.3363 20.5893ZM94.8257 18.8644H99.4897V12.5956H94.8257V18.8644ZM96.3643 15.4922C96.305 16.2726 96.0673 16.8636 95.684 17.3627L100.655 21.1813C101.827 19.6564 102.469 17.8861 102.615 15.9678L96.3643 15.4922ZM95.6799 17.368C95.3042 17.8592 94.7377 18.3147 93.8431 18.6785L96.2042 24.4855C97.979 23.7639 99.5098 22.6794 100.66 21.176L95.6799 17.368ZM93.8319 18.683C92.9699 19.0374 91.8438 19.2616 90.3817 19.2616V25.5304C92.4689 25.5304 94.4375 25.2119 96.2155 24.481L93.8319 18.683ZM105.34 9.724H108.474V6.58962H105.34V9.724ZM99.5758 9.724H96.4414V12.8584H99.5758V9.724ZM99.5758 6.38V3.24562H96.4414V6.38H99.5758ZM115.614 6.38H118.748V3.24562H115.614V6.38ZM115.614 9.724V12.8584H118.748V9.724H115.614ZM109.828 9.724V6.58962H106.693V9.724H109.828ZM109.828 22V25.1344H112.962V22H109.828ZM105.34 22H102.205V25.1344H105.34V22ZM105.34 6.58962H99.5758V12.8584H105.34V6.58962ZM102.71 9.724V6.38H96.4414V9.724H102.71ZM99.5758 9.51437H115.614V3.24562H99.5758V9.51437ZM112.479 6.38V9.724H118.748V6.38H112.479ZM115.614 6.58962H109.828V12.8584H115.614V6.58962ZM106.693 9.724V22H112.962V9.724H106.693ZM109.828 18.8656H105.34V25.1344H109.828V18.8656ZM108.474 22V9.724H102.205V22H108.474ZM116.877 6.38V3.24562H113.743V6.38H116.877ZM121.365 6.38H124.5V3.24562H121.365V6.38ZM121.365 22V25.1344H124.5V22H121.365ZM116.877 22H113.743V25.1344H116.877V22ZM116.877 9.51437H121.365V3.24562H116.877V9.51437ZM118.231 6.38V22H124.5V6.38H118.231ZM121.365 18.8656H116.877V25.1344H121.365V18.8656ZM120.012 22V6.38H113.743V22H120.012ZM140.867 6.38L143.78 7.537L145.484 3.24562H140.867V6.38ZM134.663 22V25.1344H136.79L137.576 23.157L134.663 22ZM128.305 22L125.393 23.1605L126.18 25.1344H128.305V22ZM122.079 6.38V3.24562H117.455L119.167 7.54054L122.079 6.38ZM126.699 6.38L129.618 5.2392L128.839 3.24562H126.699V6.38ZM131.539 18.766L128.619 19.9068L131.532 27.3609L134.456 19.9113L131.539 18.766ZM136.401 6.38V3.24562H134.264L133.483 5.23471L136.401 6.38ZM137.954 5.223L131.75 20.843L137.576 23.157L143.78 7.537L137.954 5.223ZM134.663 18.8656H128.305V25.1344H134.663V18.8656ZM131.216 20.8395L124.99 5.21946L119.167 7.54054L125.393 23.1605L131.216 20.8395ZM122.079 9.51437H126.699V3.24562H122.079V9.51437ZM123.779 7.52079L128.619 19.9068L134.458 17.6252L129.618 5.2392L123.779 7.52079ZM134.456 19.9113L139.318 7.52529L133.483 5.23471L128.621 17.6207L134.456 19.9113ZM136.401 9.51437H140.867V3.24562H136.401V9.51437ZM145.941 9.724V6.58962H142.807V9.724H145.941ZM145.941 12.496H142.807V15.6304H145.941V12.496ZM155.247 12.496H158.381V9.36162H155.247V12.496ZM155.247 15.84V18.9744H158.381V15.84H155.247ZM145.941 15.84V12.7056H142.807V15.84H145.941ZM145.941 18.656H142.807V21.7904H145.941V18.656ZM155.819 18.656H158.953V15.5216H155.819V18.656ZM155.819 22V25.1344H158.953V22H155.819ZM141.453 22H138.319V25.1344H141.453V22ZM141.453 6.38V3.24562H138.319V6.38H141.453ZM155.819 6.38H158.953V3.24562H155.819V6.38ZM155.819 9.724V12.8584H158.953V9.724H155.819ZM142.807 9.724V12.496H149.075V9.724H142.807ZM145.941 15.6304H155.247V9.36162H145.941V15.6304ZM152.113 12.496V15.84H158.381V12.496H152.113ZM155.247 12.7056H145.941V18.9744H155.247V12.7056ZM142.807 15.84V18.656H149.075V15.84H142.807ZM145.941 21.7904H155.819V15.5216H145.941V21.7904ZM152.685 18.656V22H158.953V18.656H152.685ZM155.819 18.8656H141.453V25.1344H155.819V18.8656ZM144.587 22V6.38H138.319V22H144.587ZM141.453 9.51437H155.819V3.24562H141.453V9.51437ZM152.685 6.38V9.724H158.953V6.38H152.685ZM155.819 6.58962H145.941V12.8584H155.819V6.58962Z" fill="#004DA8"/>
</g>
<g style="mix-blend-mode:hard-light" filter="url(#filter2_ddi)">
<path d="M12.248 9.724H14.6449V7.32712H12.248V9.724ZM6.484 9.724H4.08713V12.1209H6.484V9.724ZM6.484 6.38V3.98312H4.08713V6.38H6.484ZM22.522 6.38H24.9189V3.98312H22.522V6.38ZM22.522 9.724V12.1209H24.9189V9.724H22.522ZM16.736 9.724V7.32712H14.3391V9.724H16.736ZM16.736 22V24.3969H19.1329V22H16.736ZM12.248 22H9.85113V24.3969H12.248V22ZM12.248 7.32712H6.484V12.1209H12.248V7.32712ZM8.88087 9.724V6.38H4.08713V9.724H8.88087ZM6.484 8.77687H22.522V3.98312H6.484V8.77687ZM20.1251 6.38V9.724H24.9189V6.38H20.1251ZM22.522 7.32712H16.736V12.1209H22.522V7.32712ZM14.3391 9.724V22H19.1329V9.724H14.3391ZM16.736 19.6031H12.248V24.3969H16.736V19.6031ZM14.6449 22V9.724H9.85113V22H14.6449ZM26.4126 21.362L25.3406 23.5058L25.3497 23.5103L26.4126 21.362ZM23.2666 18.48L21.1855 19.6692L21.1908 19.6785L21.1962 19.6877L23.2666 18.48ZM23.2666 9.9L21.1962 8.69228L21.1908 8.70153L21.1855 8.71082L23.2666 9.9ZM26.4126 7.018L25.3497 4.86965L25.3406 4.87417L26.4126 7.018ZM36.4666 7.018L35.3946 9.16185L35.4037 9.16633L36.4666 7.018ZM39.6126 9.9L37.5315 11.0892L37.5368 11.0985L37.5422 11.1077L39.6126 9.9ZM39.6126 18.48L37.5422 17.2723L37.5368 17.2815L37.5315 17.2908L39.6126 18.48ZM36.4666 21.362L35.4037 19.2136L35.3946 19.2182L36.4666 21.362ZM34.8166 17.82L33.0757 16.1724L33.0679 16.1807L33.0601 16.189L34.8166 17.82ZM34.8166 10.56L33.0601 12.191L33.0679 12.1993L33.0757 12.2076L34.8166 10.56ZM28.0626 10.56L26.3217 8.91242L26.3139 8.9207L26.3061 8.92904L28.0626 10.56ZM28.0626 17.82L26.3061 19.451L26.3139 19.4593L26.3217 19.4676L28.0626 17.82ZM31.4506 19.9991C29.7592 19.9991 28.4627 19.7021 27.4754 19.2137L25.3497 23.5103C27.1491 24.4005 29.2113 24.7929 31.4506 24.7929V19.9991ZM27.4845 19.2182C26.4874 18.7196 25.8018 18.0692 25.3369 17.2723L21.1962 19.6877C22.1687 21.3548 23.5804 22.6257 25.3406 23.5058L27.4845 19.2182ZM25.3476 17.2908C24.8794 16.4715 24.6074 15.4632 24.6074 14.19H19.8137C19.8137 16.1728 20.2457 18.0245 21.1855 19.6692L25.3476 17.2908ZM24.6074 14.19C24.6074 12.9168 24.8794 11.9085 25.3476 11.0892L21.1855 8.71082C20.2457 10.3555 19.8137 12.2072 19.8137 14.19H24.6074ZM25.3369 11.1077C25.8018 10.3108 26.4874 9.66036 27.4845 9.16183L25.3406 4.87417C23.5804 5.7543 22.1687 7.0252 21.1962 8.69228L25.3369 11.1077ZM27.4754 9.16633C28.4627 8.67788 29.7592 8.38087 31.4506 8.38087V3.58712C29.2113 3.58712 27.1491 3.97945 25.3497 4.86966L27.4754 9.16633ZM31.4506 8.38087C33.1431 8.38087 34.4275 8.67827 35.3946 9.16183L37.5385 4.87417C35.7483 3.97907 33.6887 3.58712 31.4506 3.58712V8.38087ZM35.4037 9.16633C36.4124 9.66538 37.0865 10.3105 37.5315 11.0892L41.6936 8.71082C40.7306 7.02554 39.3074 5.74929 37.5294 4.86967L35.4037 9.16633ZM37.5422 11.1077C38.0182 11.9238 38.2937 12.9253 38.2937 14.19H43.0874C43.0874 12.1987 42.6442 10.3402 41.6829 8.69228L37.5422 11.1077ZM38.2937 14.19C38.2937 15.4547 38.0182 16.4562 37.5422 17.2723L41.6829 19.6877C42.6442 18.0398 43.0874 16.1813 43.0874 14.19H38.2937ZM37.5315 17.2908C37.0865 18.0695 36.4124 18.7146 35.4037 19.2137L37.5294 23.5103C39.3074 22.6307 40.7306 21.3545 41.6936 19.6692L37.5315 17.2908ZM35.3946 19.2182C34.4275 19.7017 33.1431 19.9991 31.4506 19.9991V24.7929C33.6887 24.7929 35.7483 24.4009 37.5385 23.5058L35.3946 19.2182ZM31.4506 21.4489C33.3736 21.4489 35.2236 20.9041 36.573 19.451L33.0601 16.189C32.8842 16.3786 32.4902 16.6551 31.4506 16.6551V21.4489ZM36.5574 19.4676C37.8258 18.1273 38.3794 16.4311 38.3794 14.608H33.5857C33.5857 15.4249 33.362 15.87 33.0757 16.1724L36.5574 19.4676ZM38.3794 14.608V13.772H33.5857V14.608H38.3794ZM38.3794 13.772C38.3794 11.9489 37.8258 10.2527 36.5574 8.91242L33.0757 12.2076C33.362 12.51 33.5857 12.9551 33.5857 13.772H38.3794ZM36.573 8.92904C35.2236 7.4759 33.3736 6.93112 31.4506 6.93112V11.7249C32.4902 11.7249 32.8842 12.0014 33.0601 12.191L36.573 8.92904ZM31.4506 6.93112C29.5247 6.93112 27.6804 7.47684 26.3217 8.91242L29.8034 12.2076C29.9994 12.0005 30.4138 11.7249 31.4506 11.7249V6.93112ZM26.3061 8.92904C25.06 10.271 24.5217 11.9615 24.5217 13.772H29.3154C29.3154 12.9425 29.5398 12.4917 29.819 12.191L26.3061 8.92904ZM24.5217 13.772V14.608H29.3154V13.772H24.5217ZM24.5217 14.608C24.5217 16.4185 25.06 18.109 26.3061 19.451L29.819 16.189C29.5398 15.8883 29.3154 15.4375 29.3154 14.608H24.5217ZM26.3217 19.4676C27.6804 20.9032 29.5247 21.4489 31.4506 21.4489V16.6551C30.4138 16.6551 29.9994 16.3795 29.8034 16.1724L26.3217 19.4676ZM55.8219 7.062L54.6921 9.17588V9.17588L55.8219 7.062ZM57.7799 8.932L59.8586 7.73867V7.73867L57.7799 8.932ZM57.7799 14.256L59.8586 15.4493V15.4493L57.7799 14.256ZM55.8219 16.126L54.6921 14.0121V14.0121L55.8219 16.126ZM46.3179 16.808V14.4111H43.921V16.808H46.3179ZM46.3179 22V24.3969H48.7148V22H46.3179ZM41.8299 22H39.433V24.3969H41.8299V22ZM41.8299 6.38V3.98312H39.433V6.38H41.8299ZM53.3579 10.186L51.8864 12.078L51.9086 12.0953L51.9312 12.112L53.3579 10.186ZM46.3179 9.724V7.32712H43.921V9.724H46.3179ZM46.3179 13.464H43.921V15.8609H46.3179V13.464ZM53.3359 13.024L54.7626 14.95L54.7683 14.9458L54.774 14.9415L53.3359 13.024ZM52.8299 8.77687C53.653 8.77687 54.2483 8.93869 54.6921 9.17588L56.9518 4.94812C55.6942 4.27597 54.2949 3.98312 52.8299 3.98312V8.77687ZM54.6921 9.17588C55.1697 9.43117 55.4831 9.74536 55.7012 10.1253L59.8586 7.73867C59.1674 6.53464 58.1754 5.60216 56.9518 4.94812L54.6921 9.17588ZM55.7012 10.1253C55.9316 10.5267 56.065 10.9972 56.065 11.594H60.8588C60.8588 10.2255 60.5375 8.92133 59.8586 7.73867L55.7012 10.1253ZM56.065 11.594C56.065 12.1908 55.9316 12.6613 55.7012 13.0627L59.8586 15.4493C60.5375 14.2667 60.8588 12.9625 60.8588 11.594H56.065ZM55.7012 13.0627C55.4831 13.4426 55.1697 13.7568 54.6921 14.0121L56.9518 18.2399C58.1754 17.5858 59.1674 16.6534 59.8586 15.4493L55.7012 13.0627ZM54.6921 14.0121C54.2483 14.2493 53.653 14.4111 52.8299 14.4111V19.2049C54.2949 19.2049 55.6942 18.912 56.9518 18.2399L54.6921 14.0121ZM52.8299 14.4111H46.3179V19.2049H52.8299V14.4111ZM43.921 16.808V22H48.7148V16.808H43.921ZM46.3179 19.6031H41.8299V24.3969H46.3179V19.6031ZM44.2268 22V6.38H39.433V22H44.2268ZM41.8299 8.77687H52.8299V3.98312H41.8299V8.77687ZM56.3488 11.462C56.3488 10.2593 55.8771 9.06922 54.7846 8.25997L51.9312 12.112C51.8249 12.0332 51.7087 11.9046 51.6305 11.7366C51.5568 11.5784 51.555 11.4679 51.555 11.462H56.3488ZM54.8295 8.29402C53.8723 7.54955 52.7344 7.32712 51.7079 7.32712V12.1209C51.89 12.1209 51.9797 12.1413 52.0022 12.1476C52.0189 12.1523 51.9655 12.1395 51.8864 12.078L54.8295 8.29402ZM51.7079 7.32712H46.3179V12.1209H51.7079V7.32712ZM43.921 9.724V13.464H48.7148V9.724H43.921ZM46.3179 15.8609H51.7079V11.0671H46.3179V15.8609ZM51.7079 15.8609C52.7113 15.8609 53.818 15.6498 54.7626 14.95L51.9092 11.098C51.9832 11.0432 52.0292 11.034 52.0066 11.0401C51.979 11.0476 51.8871 11.0671 51.7079 11.0671V15.8609ZM54.774 14.9415C55.8458 14.1377 56.3488 12.9629 56.3488 11.726H51.555C51.555 11.7071 51.5597 11.5942 51.6325 11.4409C51.7084 11.2809 51.8151 11.1685 51.8978 11.1065L54.774 14.9415ZM56.3488 11.726V11.462H51.555V11.726H56.3488ZM76.7628 19.338L78.9971 18.4702L78.4032 16.9411H76.7628V19.338ZM68.7548 19.338V16.9411H67.1271L66.5269 18.4542L68.7548 19.338ZM67.6988 22V24.3969H69.3266L69.9268 22.8838L67.6988 22ZM63.2328 22L61.0063 21.1125L59.6972 24.3969H63.2328V22ZM69.4588 6.38V3.98312H67.8339L67.2323 5.49253L69.4588 6.38ZM76.1908 6.38L78.4163 5.48982L77.8136 3.98312H76.1908V6.38ZM82.4388 22V24.3969H85.9791L84.6643 21.1098L82.4388 22ZM77.7968 22L75.5626 22.8678L76.1565 24.3969H77.7968V22ZM75.4648 15.994V18.3909H78.982L77.6956 15.1174L75.4648 15.994ZM72.7588 9.108L74.9896 8.23136L72.7588 2.55458L70.528 8.23136L72.7588 9.108ZM70.0528 15.994L67.822 15.1174L66.5356 18.3909H70.0528V15.994ZM76.7628 16.9411H68.7548V21.7349H76.7628V16.9411ZM66.5269 18.4542L65.4709 21.1162L69.9268 22.8838L70.9828 20.2218L66.5269 18.4542ZM67.6988 19.6031H63.2328V24.3969H67.6988V19.6031ZM65.4594 22.8875L71.6853 7.26747L67.2323 5.49253L61.0063 21.1125L65.4594 22.8875ZM69.4588 8.77687H76.1908V3.98312H69.4588V8.77687ZM73.9654 7.27018L80.2134 22.8902L84.6643 21.1098L78.4163 5.48982L73.9654 7.27018ZM82.4388 19.6031H77.7968V24.3969H82.4388V19.6031ZM80.0311 21.1322L78.9971 18.4702L74.5286 20.2058L75.5626 22.8678L80.0311 21.1322ZM77.6956 15.1174L74.9896 8.23136L70.528 9.98464L73.234 16.8706L77.6956 15.1174ZM70.528 8.23136L67.822 15.1174L72.2836 16.8706L74.9896 9.98464L70.528 8.23136ZM70.0528 18.3909H75.4648V13.5971H70.0528V18.3909ZM85.3437 21.362L84.2718 23.5058L84.2808 23.5103L85.3437 21.362ZM82.2197 18.48L80.1386 19.6692V19.6692L82.2197 18.48ZM82.2197 9.9L80.1386 8.71082V8.71082L82.2197 9.9ZM85.3437 7.018L84.2808 4.86965L84.2718 4.87417L85.3437 7.018ZM94.9357 6.776L94.0369 8.99798L94.0519 9.00404L94.0669 9.0099L94.9357 6.776ZM98.0597 8.998L96.177 10.4814L96.1838 10.4901L96.1908 10.4988L98.0597 8.998ZM99.4457 12.386V14.7829H102.13L101.827 12.1154L99.4457 12.386ZM94.7597 12.386L92.428 12.9412L92.8665 14.7829H94.7597V12.386ZM93.3077 10.186L91.8756 12.108L91.8878 12.1171L91.9002 12.1261L93.3077 10.186ZM86.9937 10.582L85.2529 8.93442L85.252 8.93532L86.9937 10.582ZM86.9937 17.82L85.2373 19.451L85.2524 19.4672L85.2678 19.4832L86.9937 17.82ZM93.3957 18.128L91.9117 16.2458L91.9027 16.2528L91.8939 16.2599L93.3957 18.128ZM94.8257 15.73V13.3331H92.8436L92.4715 15.2799L94.8257 15.73ZM99.4897 15.73L101.88 15.9118L102.076 13.3331H99.4897V15.73ZM98.1697 19.272L96.2688 17.8119L96.2657 17.816L98.1697 19.272ZM95.0237 21.582L94.1209 19.3616L94.1123 19.3652L95.0237 21.582ZM90.3817 19.9991C88.6903 19.9991 87.3939 19.7021 86.4065 19.2137L84.2808 23.5103C86.0802 24.4005 88.1424 24.7929 90.3817 24.7929V19.9991ZM86.4156 19.2182C85.422 18.7214 84.7497 18.0764 84.3008 17.2908L80.1386 19.6692C81.0977 21.3476 82.508 22.624 84.2718 23.5058L86.4156 19.2182ZM84.3008 17.2908C83.8326 16.4715 83.5606 15.4632 83.5606 14.19H78.7668C78.7668 16.1728 79.1988 18.0245 80.1386 19.6692L84.3008 17.2908ZM83.5606 14.19C83.5606 12.9168 83.8326 11.9085 84.3008 11.0892L80.1386 8.71082C79.1988 10.3555 78.7668 12.2072 78.7668 14.19H83.5606ZM84.3008 11.0892C84.7497 10.3036 85.422 9.65863 86.4156 9.16183L84.2718 4.87417C82.508 5.75604 81.0977 7.03241 80.1386 8.71082L84.3008 11.0892ZM86.4065 9.16633C87.3939 8.67788 88.6903 8.38087 90.3817 8.38087V3.58712C88.1424 3.58712 86.0802 3.97945 84.2808 4.86966L86.4065 9.16633ZM90.3817 8.38087C91.8727 8.38087 93.0744 8.60865 94.0369 8.99798L95.8345 4.55402C94.1863 3.88735 92.352 3.58712 90.3817 3.58712V8.38087ZM94.0669 9.0099C95.0485 9.39162 95.7167 9.89717 96.177 10.4814L99.9424 7.51464C98.8773 6.16283 97.4629 5.18705 95.8044 4.5421L94.0669 9.0099ZM96.1908 10.4988C96.6709 11.0966 96.9662 11.7943 97.0641 12.6566L101.827 12.1154C101.632 10.3963 101.003 8.83537 99.9286 7.49723L96.1908 10.4988ZM99.4457 9.98912H94.7597V14.7829H99.4457V9.98912ZM97.0914 11.8308C96.7427 10.3666 95.9408 9.13506 94.7152 8.24592L91.9002 12.1261C92.1706 12.3223 92.3366 12.5574 92.428 12.9412L97.0914 11.8308ZM94.7398 8.26399C93.4721 7.31943 91.9505 6.95312 90.3817 6.95312V11.7469C91.2182 11.7469 91.6473 11.9379 91.8756 12.108L94.7398 8.26399ZM90.3817 6.95312C88.4558 6.95312 86.6115 7.49884 85.2529 8.93442L88.7345 12.2296C88.9305 12.0225 89.3449 11.7469 90.3817 11.7469V6.95312ZM85.252 8.93532C83.9909 10.2691 83.4528 11.9628 83.4528 13.772H88.2466C88.2466 12.9412 88.4711 12.5082 88.7354 12.2287L85.252 8.93532ZM83.4528 13.772V14.608H88.2466V13.772H83.4528ZM83.4528 14.608C83.4528 16.4185 83.9912 18.109 85.2373 19.451L88.7501 16.189C88.4709 15.8883 88.2466 15.4375 88.2466 14.608H83.4528ZM85.2678 19.4832C86.629 20.8957 88.468 21.4269 90.3817 21.4269V16.6331C89.3327 16.6331 88.9131 16.3576 88.7196 16.1568L85.2678 19.4832ZM90.3817 21.4269C92.0164 21.4269 93.6062 21.0341 94.8975 19.9961L91.8939 16.2599C91.6892 16.4245 91.2696 16.6331 90.3817 16.6331V21.4269ZM94.8797 20.0102C96.1173 19.0344 96.8863 17.7158 97.1799 16.1801L92.4715 15.2799C92.3837 15.7388 92.1994 16.0189 91.9117 16.2458L94.8797 20.0102ZM94.8257 18.1269H99.4897V13.3331H94.8257V18.1269ZM97.0997 15.5482C97.0302 16.4624 96.7449 17.1922 96.2688 17.8119L100.071 20.7321C101.149 19.3278 101.744 17.6962 101.88 15.9118L97.0997 15.5482ZM96.2657 17.816C95.799 18.4263 95.119 18.9558 94.1209 19.3616L95.9265 23.8024C97.5977 23.1229 99.015 22.1123 100.074 20.728L96.2657 17.816ZM94.1123 19.3652C93.1425 19.7638 91.9173 19.9991 90.3817 19.9991V24.7929C92.3954 24.7929 94.2648 24.4855 95.9351 23.7988L94.1123 19.3652ZM105.34 9.724H107.737V7.32712H105.34V9.724ZM99.5758 9.724H97.1789V12.1209H99.5758V9.724ZM99.5758 6.38V3.98312H97.1789V6.38H99.5758ZM115.614 6.38H118.011V3.98312H115.614V6.38ZM115.614 9.724V12.1209H118.011V9.724H115.614ZM109.828 9.724V7.32712H107.431V9.724H109.828ZM109.828 22V24.3969H112.225V22H109.828ZM105.34 22H102.943V24.3969H105.34V22ZM105.34 7.32712H99.5758V12.1209H105.34V7.32712ZM101.973 9.724V6.38H97.1789V9.724H101.973ZM99.5758 8.77687H115.614V3.98312H99.5758V8.77687ZM113.217 6.38V9.724H118.011V6.38H113.217ZM115.614 7.32712H109.828V12.1209H115.614V7.32712ZM107.431 9.724V22H112.225V9.724H107.431ZM109.828 19.6031H105.34V24.3969H109.828V19.6031ZM107.737 22V9.724H102.943V22H107.737ZM116.877 6.38V3.98312H114.481V6.38H116.877ZM121.365 6.38H123.762V3.98312H121.365V6.38ZM121.365 22V24.3969H123.762V22H121.365ZM116.877 22H114.481V24.3969H116.877V22ZM116.877 8.77687H121.365V3.98312H116.877V8.77687ZM118.969 6.38V22H123.762V6.38H118.969ZM121.365 19.6031H116.877V24.3969H121.365V19.6031ZM119.274 22V6.38H114.481V22H119.274ZM140.867 6.38L143.094 7.26476L144.398 3.98312H140.867V6.38ZM134.663 22V24.3969H136.29L136.89 22.8848L134.663 22ZM128.305 22L126.078 22.8875L126.68 24.3969H128.305V22ZM122.079 6.38V3.98312H118.543L119.852 7.26747L122.079 6.38ZM126.699 6.38L128.931 5.50763L128.335 3.98312H126.699V6.38ZM131.539 18.766L129.306 19.6384L131.533 25.3385L133.77 19.6418L131.539 18.766ZM136.401 6.38V3.98312H134.766L134.169 5.50419L136.401 6.38ZM138.639 5.49523L132.435 21.1152L136.89 22.8848L143.094 7.26476L138.639 5.49523ZM134.663 19.6031H128.305V24.3969H134.663V19.6031ZM130.531 21.1125L124.305 5.49253L119.852 7.26747L126.078 22.8875L130.531 21.1125ZM122.079 8.77687H126.699V3.98312H122.079V8.77687ZM124.466 7.25237L129.306 19.6384L133.771 17.8936L128.931 5.50763L124.466 7.25237ZM133.77 19.6418L138.632 7.25581L134.169 5.50419L129.307 17.8902L133.77 19.6418ZM136.401 8.77687H140.867V3.98312H136.401V8.77687ZM145.941 9.724V7.32712H143.544V9.724H145.941ZM145.941 12.496H143.544V14.8929H145.941V12.496ZM155.247 12.496H157.644V10.0991H155.247V12.496ZM155.247 15.84V18.2369H157.644V15.84H155.247ZM145.941 15.84V13.4431H143.544V15.84H145.941ZM145.941 18.656H143.544V21.0529H145.941V18.656ZM155.819 18.656H158.216V16.2591H155.819V18.656ZM155.819 22V24.3969H158.216V22H155.819ZM141.453 22H139.056V24.3969H141.453V22ZM141.453 6.38V3.98312H139.056V6.38H141.453ZM155.819 6.38H158.216V3.98312H155.819V6.38ZM155.819 9.724V12.1209H158.216V9.724H155.819ZM143.544 9.724V12.496H148.338V9.724H143.544ZM145.941 14.8929H155.247V10.0991H145.941V14.8929ZM152.85 12.496V15.84H157.644V12.496H152.85ZM155.247 13.4431H145.941V18.2369H155.247V13.4431ZM143.544 15.84V18.656H148.338V15.84H143.544ZM145.941 21.0529H155.819V16.2591H145.941V21.0529ZM153.422 18.656V22H158.216V18.656H153.422ZM155.819 19.6031H141.453V24.3969H155.819V19.6031ZM143.85 22V6.38H139.056V22H143.85ZM141.453 8.77687H155.819V3.98312H141.453V8.77687ZM153.422 6.38V9.724H158.216V6.38H153.422ZM155.819 7.32712H145.941V12.1209H155.819V7.32712Z" fill="#3733E9" fill-opacity="0.2"/>
</g>
<g filter="url(#filter3_f)">
<path d="M12.248 9.724H13.723V8.249H12.248V9.724ZM6.484 9.724H5.009V11.199H6.484V9.724ZM6.484 6.38V4.905H5.009V6.38H6.484ZM22.522 6.38H23.997V4.905H22.522V6.38ZM22.522 9.724V11.199H23.997V9.724H22.522ZM16.736 9.724V8.249H15.261V9.724H16.736ZM16.736 22V23.475H18.211V22H16.736ZM12.248 22H10.773V23.475H12.248V22ZM12.248 8.249H6.484V11.199H12.248V8.249ZM7.959 9.724V6.38H5.009V9.724H7.959ZM6.484 7.855H22.522V4.905H6.484V7.855ZM21.047 6.38V9.724H23.997V6.38H21.047ZM22.522 8.249H16.736V11.199H22.522V8.249ZM15.261 9.724V22H18.211V9.724H15.261ZM16.736 20.525H12.248V23.475H16.736V20.525ZM13.723 22V9.724H10.773V22H13.723ZM26.4126 21.362L25.7529 22.6813L25.7585 22.6841L26.4126 21.362ZM23.2666 18.48L21.9859 19.2118L21.9925 19.2232L23.2666 18.48ZM23.2666 9.9L21.9924 9.15676L21.9859 9.16819L23.2666 9.9ZM26.4126 7.018L25.7585 5.69594L25.7529 5.69872L26.4126 7.018ZM36.4666 7.018L35.8069 8.33729L35.8125 8.34005L36.4666 7.018ZM39.6126 9.9L38.3319 10.6318L38.3385 10.6432L39.6126 9.9ZM39.6126 18.48L38.3384 17.7368L38.3319 17.7482L39.6126 18.48ZM36.4666 21.362L35.8125 20.0399L35.8069 20.0427L36.4666 21.362ZM34.8166 17.82L33.7452 16.8061L33.7357 16.8163L34.8166 17.82ZM34.8166 10.56L33.7356 11.5637L33.7453 11.5739L34.8166 10.56ZM28.0626 10.56L26.9912 9.54606L26.9817 9.55633L28.0626 10.56ZM28.0626 17.82L26.9816 18.8237L26.9913 18.8339L28.0626 17.82ZM31.4506 20.921C29.6538 20.921 28.2101 20.6057 27.0666 20.0399L25.7585 22.6841C27.4017 23.497 29.3167 23.871 31.4506 23.871V20.921ZM27.0722 20.0427C25.9284 19.4708 25.1031 18.701 24.5406 17.7368L21.9925 19.2232C22.8673 20.723 24.1394 21.8745 25.7529 22.6813L27.0722 20.0427ZM24.5472 17.7482C23.9883 16.7701 23.6856 15.5996 23.6856 14.19H20.7356C20.7356 16.0364 21.1368 17.7259 21.9859 19.2118L24.5472 17.7482ZM23.6856 14.19C23.6856 12.7803 23.9883 11.6099 24.5472 10.6318L21.9859 9.16819C21.1368 10.6541 20.7356 12.3436 20.7356 14.19H23.6856ZM24.5406 10.6432C25.1031 9.67895 25.9284 8.9092 27.0722 8.33728L25.7529 5.69872C24.1394 6.50547 22.8673 7.65705 21.9925 9.15679L24.5406 10.6432ZM27.0666 8.34005C28.2101 7.77433 29.6538 7.459 31.4506 7.459V4.509C29.3167 4.509 27.4017 4.883 25.7585 5.69595L27.0666 8.34005ZM31.4506 7.459C33.248 7.459 34.6815 7.77457 35.8069 8.33728L37.1262 5.69872C35.4943 4.88276 33.5838 4.509 31.4506 4.509V7.459ZM35.8125 8.34005C36.9691 8.91228 37.7873 9.67874 38.3319 10.6318L40.8932 9.16819C40.0298 7.65726 38.7507 6.50238 37.1206 5.69595L35.8125 8.34005ZM38.3385 10.6432C38.9078 11.6193 39.2156 12.7856 39.2156 14.19H42.1656C42.1656 12.3384 41.7546 10.6447 40.8866 9.15679L38.3385 10.6432ZM39.2156 14.19C39.2156 15.5944 38.9078 16.7607 38.3385 17.7368L40.8866 19.2232C41.7546 17.7353 42.1656 16.0416 42.1656 14.19H39.2156ZM38.3319 17.7482C37.7873 18.7013 36.9691 19.4677 35.8125 20.0399L37.1206 22.6841C38.7507 21.8776 40.0298 20.7227 40.8932 19.2118L38.3319 17.7482ZM35.8069 20.0427C34.6815 20.6054 33.248 20.921 31.4506 20.921V23.871C33.5838 23.871 35.4943 23.4972 37.1262 22.6813L35.8069 20.0427ZM31.4506 20.527C33.2037 20.527 34.7737 20.0338 35.8974 18.8237L33.7357 16.8163C33.3341 17.2489 32.6601 17.577 31.4506 17.577V20.527ZM35.8878 18.8339C36.9674 17.6932 37.4576 16.2376 37.4576 14.608H34.5076C34.5076 15.6184 34.2204 16.3041 33.7453 16.8061L35.8878 18.8339ZM37.4576 14.608V13.772H34.5076V14.608H37.4576ZM37.4576 13.772C37.4576 12.1424 36.9674 10.6868 35.8878 9.54611L33.7453 11.5739C34.2204 12.0759 34.5076 12.7616 34.5076 13.772H37.4576ZM35.8974 9.55633C34.7737 8.34619 33.2037 7.853 31.4506 7.853V10.803C32.6601 10.803 33.3341 11.1311 33.7357 11.5637L35.8974 9.55633ZM31.4506 7.853C29.6957 7.853 28.1264 8.34678 26.9913 9.54611L29.1338 11.5739C29.5534 11.1306 30.2428 10.803 31.4506 10.803V7.853ZM26.9817 9.55633C25.9215 10.6981 25.4436 12.1501 25.4436 13.772H28.3936C28.3936 12.7539 28.6783 12.0646 29.1434 11.5637L26.9817 9.55633ZM25.4436 13.772V14.608H28.3936V13.772H25.4436ZM25.4436 14.608C25.4436 16.2299 25.9215 17.6819 26.9817 18.8237L29.1434 16.8163C28.6783 16.3154 28.3936 15.6261 28.3936 14.608H25.4436ZM26.9913 18.8339C28.1264 20.0332 29.6957 20.527 31.4506 20.527V17.577C30.2428 17.577 29.5534 17.2494 29.1338 16.8061L26.9913 18.8339ZM55.8219 7.062L55.1266 8.36285V8.36285L55.8219 7.062ZM57.7799 8.932L59.0591 8.19765V8.19764L57.7799 8.932ZM57.7799 14.256L59.0591 14.9904V14.9904L57.7799 14.256ZM55.8219 16.126L55.1266 14.8252L55.8219 16.126ZM46.3179 16.808V15.333H44.8429V16.808H46.3179ZM46.3179 22V23.475H47.7929V22H46.3179ZM41.8299 22H40.3549V23.475H41.8299V22ZM41.8299 6.38V4.905H40.3549V6.38H41.8299ZM53.3579 10.186L52.4524 11.3503L52.466 11.3609L52.48 11.3712L53.3579 10.186ZM46.3179 9.724V8.249H44.8429V9.724H46.3179ZM46.3179 13.464H44.8429V14.939H46.3179V13.464ZM53.3359 13.024L54.2139 14.2093L54.2209 14.204L53.3359 13.024ZM52.8299 7.855C53.7764 7.855 54.5264 8.04202 55.1266 8.36285L56.5172 5.76115C55.4161 5.17265 54.1714 4.905 52.8299 4.905V7.855ZM55.1266 8.36285C55.7478 8.69482 56.1916 9.12792 56.5007 9.66635L59.0591 8.19764C58.4589 7.15208 57.5974 6.33851 56.5172 5.76115L55.1266 8.36285ZM56.5007 9.66635C56.8174 10.218 56.9869 10.8488 56.9869 11.594H59.9369C59.9369 10.3739 59.6518 9.23005 59.0591 8.19765L56.5007 9.66635ZM56.9869 11.594C56.9869 12.3392 56.8174 12.97 56.5007 13.5216L59.0591 14.9904C59.6518 13.958 59.9369 12.8141 59.9369 11.594H56.9869ZM56.5007 13.5216C56.1916 14.0601 55.7478 14.4932 55.1266 14.8252L56.5172 17.4268C57.5974 16.8495 58.4589 16.0359 59.0591 14.9904L56.5007 13.5216ZM55.1266 14.8252C54.5264 15.146 53.7764 15.333 52.8299 15.333V18.283C54.1714 18.283 55.4161 18.0154 56.5172 17.4268L55.1266 14.8252ZM52.8299 15.333H46.3179V18.283H52.8299V15.333ZM44.8429 16.808V22H47.7929V16.808H44.8429ZM46.3179 20.525H41.8299V23.475H46.3179V20.525ZM43.3049 22V6.38H40.3549V22H43.3049ZM41.8299 7.855H52.8299V4.905H41.8299V7.855ZM55.4269 11.462C55.4269 10.5075 55.0605 9.61157 54.2359 9.00075L52.48 11.3712C52.4885 11.3776 52.4869 11.3777 52.4809 11.3705C52.4746 11.3629 52.4694 11.3543 52.4662 11.3475C52.459 11.332 52.4769 11.3585 52.4769 11.462H55.4269ZM54.2635 9.02171C53.5221 8.44511 52.6104 8.249 51.7079 8.249V11.199C52.2135 11.199 52.4017 11.3109 52.4524 11.3503L54.2635 9.02171ZM51.7079 8.249H46.3179V11.199H51.7079V8.249ZM44.8429 9.724V13.464H47.7929V9.724H44.8429ZM46.3179 14.939H51.7079V11.989H46.3179V14.939ZM51.7079 14.939C52.5905 14.939 53.4802 14.7527 54.2139 14.2092L52.458 11.8388C52.3996 11.882 52.204 11.989 51.7079 11.989V14.939ZM54.2209 14.204C55.0384 13.5909 55.4269 12.7015 55.4269 11.726H52.4769C52.4769 11.8216 52.4601 11.8473 52.4654 11.8361C52.4673 11.8321 52.4699 11.8282 52.4714 11.8265C52.4725 11.8251 52.4676 11.8315 52.4509 11.844L54.2209 14.204ZM55.4269 11.726V11.462H52.4769V11.726H55.4269ZM76.7628 19.338L78.1377 18.8039L77.7723 17.863H76.7628V19.338ZM68.7548 19.338V17.863H67.7531L67.3838 18.7941L68.7548 19.338ZM67.6988 22V23.475H68.7005L69.0699 22.5439L67.6988 22ZM63.2328 22L61.8627 21.4539L61.0571 23.475H63.2328V22ZM69.4588 6.38V4.905H68.4589L68.0887 5.83386L69.4588 6.38ZM76.1908 6.38L77.5603 5.8322L77.1895 4.905H76.1908V6.38ZM82.4388 22V23.475H84.6175L83.8083 21.4522L82.4388 22ZM77.7968 22L76.4219 22.5341L76.7874 23.475H77.7968V22ZM75.4648 15.994V17.469H77.6293L76.8376 15.4545L75.4648 15.994ZM72.7588 9.108L74.1316 8.56853L72.7588 5.07513L71.386 8.56853L72.7588 9.108ZM70.0528 15.994L68.68 15.4545L67.8884 17.469H70.0528V15.994ZM76.7628 17.863H68.7548V20.813H76.7628V17.863ZM67.3838 18.7941L66.3278 21.4561L69.0699 22.5439L70.1259 19.8819L67.3838 18.7941ZM67.6988 20.525H63.2328V23.475H67.6988V20.525ZM64.603 22.5461L70.829 6.92614L68.0887 5.83386L61.8627 21.4539L64.603 22.5461ZM69.4588 7.855H76.1908V4.905H69.4588V7.855ZM74.8213 6.9278L81.0693 22.5478L83.8083 21.4522L77.5603 5.8322L74.8213 6.9278ZM82.4388 20.525H77.7968V23.475H82.4388V20.525ZM79.1717 21.4659L78.1377 18.8039L75.3879 19.8721L76.4219 22.5341L79.1717 21.4659ZM76.8376 15.4545L74.1316 8.56853L71.386 9.64747L74.092 16.5335L76.8376 15.4545ZM71.386 8.56853L68.68 15.4545L71.4256 16.5335L74.1316 9.64747L71.386 8.56853ZM70.0528 17.469H75.4648V14.519H70.0528V17.469ZM85.3437 21.362L84.684 22.6813L84.6896 22.6841L85.3437 21.362ZM82.2197 18.48L80.939 19.2118L82.2197 18.48ZM82.2197 9.9L80.939 9.16819L82.2197 9.9ZM85.3437 7.018L84.6896 5.69594L84.684 5.69872L85.3437 7.018ZM94.9357 6.776L94.3826 8.14337L94.3918 8.1471L94.4011 8.15071L94.9357 6.776ZM98.0597 8.998L96.901 9.91088L96.9096 9.92155L98.0597 8.998ZM99.4457 12.386V13.861H101.098L100.911 12.2195L99.4457 12.386ZM94.7597 12.386L93.3248 12.7276L93.5947 13.861H94.7597V12.386ZM93.3077 10.186L92.4264 11.3688L92.4339 11.3744L92.4415 11.3799L93.3077 10.186ZM86.9937 10.582L85.9224 9.56811L85.9219 9.56866L86.9937 10.582ZM86.9937 17.82L85.9128 18.8237L85.9221 18.8337L85.9316 18.8435L86.9937 17.82ZM93.3957 18.128L92.4824 16.9697L92.4715 16.9784L93.3957 18.128ZM94.8257 15.73V14.255H93.606L93.3769 15.453L94.8257 15.73ZM99.4897 15.73L100.96 15.8419L101.081 14.255H99.4897V15.73ZM98.1697 19.272L96.9999 18.3735L96.998 18.376L98.1697 19.272ZM95.0237 21.582L94.4681 20.2156L94.4628 20.2178L95.0237 21.582ZM90.3817 20.921C88.5849 20.921 87.1412 20.6057 85.9978 20.0399L84.6896 22.6841C86.3328 23.497 88.2478 23.871 90.3817 23.871V20.921ZM86.0033 20.0427C84.8616 19.4719 84.0474 18.7055 83.5003 17.7482L80.939 19.2118C81.8 20.7185 83.0684 21.8735 84.684 22.6813L86.0033 20.0427ZM83.5003 17.7482C82.9415 16.7701 82.6387 15.5996 82.6387 14.19H79.6887C79.6887 16.0364 80.0899 17.7259 80.939 19.2118L83.5003 17.7482ZM82.6387 14.19C82.6387 12.7803 82.9415 11.6099 83.5003 10.6318L80.939 9.16819C80.0899 10.6541 79.6887 12.3436 79.6887 14.19H82.6387ZM83.5003 10.6318C84.0474 9.67452 84.8616 8.90813 86.0033 8.33728L84.684 5.69872C83.0684 6.50654 81.8 7.66148 80.939 9.16819L83.5003 10.6318ZM85.9978 8.34005C87.1412 7.77433 88.5849 7.459 90.3817 7.459V4.509C88.2478 4.509 86.3328 4.883 84.6896 5.69595L85.9978 8.34005ZM90.3817 7.459C91.9649 7.459 93.2882 7.70071 94.3826 8.14337L95.4888 5.40863C93.9725 4.79529 92.2598 4.509 90.3817 4.509V7.459ZM94.4011 8.15071C95.5128 8.58305 96.3245 9.17903 96.9011 9.91084L99.2183 8.08516C98.2695 6.88097 96.9986 5.99562 95.4703 5.40129L94.4011 8.15071ZM96.9096 9.92155C97.504 10.6618 97.8634 11.5255 97.9801 12.5525L100.911 12.2195C100.735 10.6652 100.17 9.27023 99.2098 8.07445L96.9096 9.92155ZM99.4457 10.911H94.7597V13.861H99.4457V10.911ZM96.1946 12.0444C95.8954 10.7879 95.2157 9.74798 94.1739 8.9921L92.4415 11.3799C92.8956 11.7093 93.184 12.1361 93.3248 12.7276L96.1946 12.0444ZM94.189 9.00322C93.1212 8.2076 91.8097 7.875 90.3817 7.875V10.825C91.359 10.825 91.9982 11.0497 92.4264 11.3688L94.189 9.00322ZM90.3817 7.875C88.6268 7.875 87.0575 8.36878 85.9224 9.56811L88.065 11.5959C88.4846 11.1526 89.1739 10.825 90.3817 10.825V7.875ZM85.9219 9.56866C84.8525 10.6997 84.3747 12.1509 84.3747 13.772H87.3247C87.3247 12.7531 87.6095 12.0776 88.0655 11.5953L85.9219 9.56866ZM84.3747 13.772V14.608H87.3247V13.772H84.3747ZM84.3747 14.608C84.3747 16.2299 84.8526 17.6819 85.9128 18.8237L88.0746 16.8163C87.6094 16.3154 87.3247 15.6261 87.3247 14.608H84.3747ZM85.9316 18.8435C87.0682 20.023 88.6343 20.505 90.3817 20.505V17.555C89.1664 17.555 88.4738 17.2303 88.0558 16.7965L85.9316 18.8435ZM90.3817 20.505C91.8728 20.505 93.2375 20.1477 94.3199 19.2776L92.4715 16.9784C92.0578 17.311 91.4132 17.555 90.3817 17.555V20.505ZM94.3089 19.2863C95.3639 18.4545 96.0204 17.3356 96.2745 16.007L93.3769 15.453C93.2496 16.119 92.9529 16.5988 92.4824 16.9697L94.3089 19.2863ZM94.8257 17.205H99.4897V14.255H94.8257V17.205ZM98.0189 15.6181C97.9366 16.6997 97.5919 17.6029 96.9999 18.3735L99.3394 20.1705C100.302 18.9171 100.837 17.459 100.96 15.8419L98.0189 15.6181ZM96.998 18.376C96.4175 19.1352 95.5957 19.7572 94.4681 20.2156L95.5792 22.9484C97.121 22.3215 98.3966 21.4035 99.3414 20.168L96.998 18.376ZM94.4628 20.2178C93.3584 20.6719 92.0093 20.921 90.3817 20.921V23.871C92.3034 23.871 94.049 23.5775 95.5845 22.9462L94.4628 20.2178ZM105.34 9.724H106.815V8.249H105.34V9.724ZM99.5758 9.724H98.1008V11.199H99.5758V9.724ZM99.5758 6.38V4.905H98.1008V6.38H99.5758ZM115.614 6.38H117.089V4.905H115.614V6.38ZM115.614 9.724V11.199H117.089V9.724H115.614ZM109.828 9.724V8.249H108.353V9.724H109.828ZM109.828 22V23.475H111.303V22H109.828ZM105.34 22H103.865V23.475H105.34V22ZM105.34 8.249H99.5758V11.199H105.34V8.249ZM101.051 9.724V6.38H98.1008V9.724H101.051ZM99.5758 7.855H115.614V4.905H99.5758V7.855ZM114.139 6.38V9.724H117.089V6.38H114.139ZM115.614 8.249H109.828V11.199H115.614V8.249ZM108.353 9.724V22H111.303V9.724H108.353ZM109.828 20.525H105.34V23.475H109.828V20.525ZM106.815 22V9.724H103.865V22H106.815ZM116.877 6.38V4.905H115.402V6.38H116.877ZM121.365 6.38H122.84V4.905H121.365V6.38ZM121.365 22V23.475H122.84V22H121.365ZM116.877 22H115.402V23.475H116.877V22ZM116.877 7.855H121.365V4.905H116.877V7.855ZM119.89 6.38V22H122.84V6.38H119.89ZM121.365 20.525H116.877V23.475H121.365V20.525ZM118.352 22V6.38H115.402V22H118.352ZM140.867 6.38L142.237 6.92447L143.039 4.905H140.867V6.38ZM134.663 22V23.475H135.664L136.033 22.5445L134.663 22ZM128.305 22L126.934 22.5461L127.305 23.475H128.305V22ZM122.079 6.38V4.905H119.903L120.708 6.92614L122.079 6.38ZM126.699 6.38L128.072 5.84315L127.706 4.905H126.699V6.38ZM131.539 18.766L130.165 19.3028L131.535 22.8106L132.912 19.305L131.539 18.766ZM136.401 6.38V4.905H135.395L135.028 5.84104L136.401 6.38ZM139.496 5.83553L133.292 21.4555L136.033 22.5445L142.237 6.92447L139.496 5.83553ZM134.663 20.525H128.305V23.475H134.663V20.525ZM129.675 21.4539L123.449 5.83386L120.708 6.92614L126.934 22.5461L129.675 21.4539ZM122.079 7.855H126.699V4.905H122.079V7.855ZM125.325 6.91684L130.165 19.3028L132.912 18.2292L128.072 5.84315L125.325 6.91684ZM132.912 19.305L137.774 6.91896L135.028 5.84104L130.166 18.227L132.912 19.305ZM136.401 7.855H140.867V4.905H136.401V7.855ZM145.941 9.724V8.249H144.466V9.724H145.941ZM145.941 12.496H144.466V13.971H145.941V12.496ZM155.247 12.496H156.722V11.021H155.247V12.496ZM155.247 15.84V17.315H156.722V15.84H155.247ZM145.941 15.84V14.365H144.466V15.84H145.941ZM145.941 18.656H144.466V20.131H145.941V18.656ZM155.819 18.656H157.294V17.181H155.819V18.656ZM155.819 22V23.475H157.294V22H155.819ZM141.453 22H139.978V23.475H141.453V22ZM141.453 6.38V4.905H139.978V6.38H141.453ZM155.819 6.38H157.294V4.905H155.819V6.38ZM155.819 9.724V11.199H157.294V9.724H155.819ZM144.466 9.724V12.496H147.416V9.724H144.466ZM145.941 13.971H155.247V11.021H145.941V13.971ZM153.772 12.496V15.84H156.722V12.496H153.772ZM155.247 14.365H145.941V17.315H155.247V14.365ZM144.466 15.84V18.656H147.416V15.84H144.466ZM145.941 20.131H155.819V17.181H145.941V20.131ZM154.344 18.656V22H157.294V18.656H154.344ZM155.819 20.525H141.453V23.475H155.819V20.525ZM142.928 22V6.38H139.978V22H142.928ZM141.453 7.855H155.819V4.905H141.453V7.855ZM154.344 6.38V9.724H157.294V6.38H154.344ZM155.819 8.249H145.941V11.199H155.819V8.249Z" fill="#3371E9"/>
</g>
<g filter="url(#filter4_f)">
<path d="M12.248 9.724H12.9855V8.9865H12.248V9.724ZM6.484 9.724H5.7465V10.4615H6.484V9.724ZM6.484 6.38V5.6425H5.7465V6.38H6.484ZM22.522 6.38H23.2595V5.6425H22.522V6.38ZM22.522 9.724V10.4615H23.2595V9.724H22.522ZM16.736 9.724V8.9865H15.9985V9.724H16.736ZM16.736 22V22.7375H17.4735V22H16.736ZM12.248 22H11.5105V22.7375H12.248V22ZM12.248 8.9865H6.484V10.4615H12.248V8.9865ZM7.2215 9.724V6.38H5.7465V9.724H7.2215ZM6.484 7.1175H22.522V5.6425H6.484V7.1175ZM21.7845 6.38V9.724H23.2595V6.38H21.7845ZM22.522 8.9865H16.736V10.4615H22.522V8.9865ZM15.9985 9.724V22H17.4735V9.724H15.9985ZM16.736 21.2625H12.248V22.7375H16.736V21.2625ZM12.9855 22V9.724H11.5105V22H12.9855ZM26.4126 21.362L26.0827 22.0216L26.0855 22.023L26.4126 21.362ZM23.2666 18.48L22.6262 18.8459L22.6295 18.8516L23.2666 18.48ZM23.2666 9.9L22.6295 9.52838L22.6262 9.5341L23.2666 9.9ZM26.4126 7.018L26.0855 6.35697L26.0827 6.35836L26.4126 7.018ZM36.4666 7.018L36.1367 7.67764L36.1395 7.67902L36.4666 7.018ZM39.6126 9.9L38.9722 10.2659L38.9755 10.2716L39.6126 9.9ZM39.6126 18.48L38.9755 18.1084L38.9722 18.1141L39.6126 18.48ZM36.4666 21.362L36.1395 20.701L36.1367 20.7024L36.4666 21.362ZM34.8166 17.82L34.2809 17.313L34.2761 17.3182L34.8166 17.82ZM34.8166 10.56L34.2761 11.0619L34.2809 11.0669L34.8166 10.56ZM28.0626 10.56L27.5269 10.053L27.5221 10.0582L28.0626 10.56ZM28.0626 17.82L27.5221 18.3219L27.5269 18.3269L28.0626 17.82ZM31.4506 21.6585C29.5695 21.6585 28.008 21.3285 26.7396 20.701L26.0855 22.023C27.6038 22.7742 29.4009 23.1335 31.4506 23.1335V21.6585ZM26.7424 20.7024C25.4811 20.0717 24.5442 19.2065 23.9036 18.1084L22.6295 18.8516C23.4263 20.2175 24.5867 21.2736 26.0827 22.0216L26.7424 20.7024ZM23.9069 18.1141C23.2754 17.0091 22.9481 15.7088 22.9481 14.19H21.4731C21.4731 15.9272 21.8497 17.4869 22.6262 18.8459L23.9069 18.1141ZM22.9481 14.19C22.9481 12.6712 23.2754 11.3709 23.9069 10.2659L22.6262 9.5341C21.8497 10.8931 21.4731 12.4528 21.4731 14.19H22.9481ZM23.9036 10.2716C24.5442 9.17348 25.4811 8.30827 26.7424 7.67764L26.0827 6.35836C24.5867 7.1064 23.4263 8.16252 22.6295 9.52839L23.9036 10.2716ZM26.7396 7.67902C28.008 7.0515 29.5695 6.7215 31.4506 6.7215V5.2465C29.4009 5.2465 27.6038 5.60583 26.0855 6.35697L26.7396 7.67902ZM31.4506 6.7215C33.332 6.7215 34.8847 7.05162 36.1367 7.67764L36.7964 6.35836C35.2911 5.60571 33.4998 5.2465 31.4506 5.2465V6.7215ZM36.1395 7.67902C37.4145 8.30981 38.3479 9.17337 38.9722 10.2659L40.2529 9.5341C39.4692 8.16263 38.3053 7.10486 36.7936 6.35697L36.1395 7.67902ZM38.9755 10.2716C39.6195 11.3756 39.9531 12.6738 39.9531 14.19H41.4281C41.4281 12.4502 41.0429 10.8884 40.2496 9.52839L38.9755 10.2716ZM39.9531 14.19C39.9531 15.7062 39.6195 17.0044 38.9755 18.1084L40.2496 18.8516C41.0429 17.4916 41.4281 15.9298 41.4281 14.19H39.9531ZM38.9722 18.1141C38.3479 19.2066 37.4145 20.0702 36.1395 20.701L36.7936 22.023C38.3053 21.2751 39.4692 20.2174 40.2529 18.8459L38.9722 18.1141ZM36.1367 20.7024C34.8847 21.3284 33.332 21.6585 31.4506 21.6585V23.1335C33.4998 23.1335 35.2911 22.7743 36.7964 22.0216L36.1367 20.7024ZM31.4506 19.7895C33.0678 19.7895 34.4138 19.3376 35.357 18.3218L34.2761 17.3182C33.694 17.9451 32.796 18.3145 31.4506 18.3145V19.7895ZM35.3522 18.3269C36.2806 17.346 36.7201 16.0828 36.7201 14.608H35.2451C35.2451 15.7732 34.9071 16.6514 34.2809 17.3131L35.3522 18.3269ZM36.7201 14.608V13.772H35.2451V14.608H36.7201ZM36.7201 13.772C36.7201 12.2972 36.2806 11.034 35.3522 10.0531L34.2809 11.0669C34.9071 11.7286 35.2451 12.6068 35.2451 13.772H36.7201ZM35.357 10.0582C34.4138 9.04243 33.0678 8.5905 31.4506 8.5905V10.0655C32.796 10.0655 33.694 10.4349 34.2761 11.0618L35.357 10.0582ZM31.4506 8.5905C29.8324 8.5905 28.4831 9.04272 27.5269 10.0531L28.5982 11.0669C29.1967 10.4346 30.106 10.0655 31.4506 10.0655V8.5905ZM27.5221 10.0582C26.6107 11.0397 26.1811 12.3011 26.1811 13.772H27.6561C27.6561 12.6029 27.9891 11.723 28.603 11.0618L27.5221 10.0582ZM26.1811 13.772V14.608H27.6561V13.772H26.1811ZM26.1811 14.608C26.1811 16.0789 26.6107 17.3403 27.5221 18.3218L28.603 17.3182C27.9891 16.657 27.6561 15.7771 27.6561 14.608H26.1811ZM27.5269 18.3269C28.4831 19.3373 29.8324 19.7895 31.4506 19.7895V18.3145C30.106 18.3145 29.1967 17.9454 28.5982 17.3131L27.5269 18.3269ZM55.8219 7.062L55.4743 7.71242V7.71242L55.8219 7.062ZM57.7799 8.932L58.4195 8.56482V8.56482L57.7799 8.932ZM57.7799 14.256L58.4195 14.6232L57.7799 14.256ZM55.8219 16.126L55.4743 15.4756V15.4756L55.8219 16.126ZM46.3179 16.808V16.0705H45.5804V16.808H46.3179ZM46.3179 22V22.7375H47.0554V22H46.3179ZM41.8299 22H41.0924V22.7375H41.8299V22ZM41.8299 6.38V5.6425H41.0924V6.38H41.8299ZM53.3579 10.186L52.9051 10.7681L52.912 10.7735L52.9189 10.7786L53.3579 10.186ZM46.3179 9.724V8.9865H45.5804V9.724H46.3179ZM46.3179 13.464H45.5804V14.2015H46.3179V13.464ZM53.3359 13.024L53.7749 13.6166L53.7784 13.614L53.3359 13.024ZM52.8299 7.1175C53.8752 7.1175 54.7488 7.32468 55.4743 7.71242L56.1696 6.41158C55.1937 5.88999 54.0727 5.6425 52.8299 5.6425V7.1175ZM55.4743 7.71242C56.2102 8.10574 56.7584 8.63396 57.1403 9.29918L58.4195 8.56482C57.8921 7.64604 57.135 6.92759 56.1696 6.41157L55.4743 7.71242ZM57.1403 9.29918C57.526 9.97098 57.7244 10.7301 57.7244 11.594H59.1994C59.1994 10.4926 58.9432 9.47702 58.4195 8.56482L57.1403 9.29918ZM57.7244 11.594C57.7244 12.4579 57.526 13.217 57.1403 13.8888L58.4195 14.6232C58.9432 13.711 59.1994 12.6954 59.1994 11.594H57.7244ZM57.1403 13.8888C56.7584 14.554 56.2102 15.0823 55.4743 15.4756L56.1696 16.7764C57.135 16.2604 57.8921 15.542 58.4195 14.6232L57.1403 13.8888ZM55.4743 15.4756C54.7488 15.8633 53.8752 16.0705 52.8299 16.0705V17.5455C54.0727 17.5455 55.1937 17.298 56.1696 16.7764L55.4743 15.4756ZM52.8299 16.0705H46.3179V17.5455H52.8299V16.0705ZM45.5804 16.808V22H47.0554V16.808H45.5804ZM46.3179 21.2625H41.8299V22.7375H46.3179V21.2625ZM42.5674 22V6.38H41.0924V22H42.5674ZM41.8299 7.1175H52.8299V5.6425H41.8299V7.1175ZM54.6894 11.462C54.6894 10.7061 54.4072 10.0455 53.7969 9.59338L52.9189 10.7786C53.1006 10.9132 53.2144 11.1032 53.2144 11.462H54.6894ZM53.8107 9.60385C53.242 9.16155 52.5112 8.9865 51.7079 8.9865V10.4615C52.3127 10.4615 52.6818 10.5944 52.9051 10.7681L53.8107 9.60385ZM51.7079 8.9865H46.3179V10.4615H51.7079V8.9865ZM45.5804 9.724V13.464H47.0554V9.724H45.5804ZM46.3179 14.2015H51.7079V12.7265H46.3179V14.2015ZM51.7079 14.2015C52.4939 14.2015 53.2101 14.035 53.7749 13.6166L52.8969 12.4314C52.6698 12.5997 52.3006 12.7265 51.7079 12.7265V14.2015ZM53.7784 13.614C54.3925 13.1534 54.6894 12.4924 54.6894 11.726H53.2144C53.2144 12.0742 53.1007 12.2786 52.8934 12.434L53.7784 13.614ZM54.6894 11.726V11.462H53.2144V11.726H54.6894ZM76.7628 19.338L77.4503 19.071L77.2675 18.6005H76.7628V19.338ZM68.7548 19.338V18.6005H68.254L68.0693 19.0661L68.7548 19.338ZM67.6988 22V22.7375H68.1997L68.3844 22.2719L67.6988 22ZM63.2328 22L62.5477 21.7269L62.1449 22.7375H63.2328V22ZM69.4588 6.38V5.6425H68.9589L68.7737 6.10693L69.4588 6.38ZM76.1908 6.38L76.8756 6.1061L76.6901 5.6425H76.1908V6.38ZM82.4388 22V22.7375H83.5281L83.1236 21.7261L82.4388 22ZM77.7968 22L77.1094 22.267L77.2921 22.7375H77.7968V22ZM75.4648 15.994V16.7315H76.547L76.1512 15.7243L75.4648 15.994ZM72.7588 9.108L73.4452 8.83826L72.7588 7.09156L72.0724 8.83826L72.7588 9.108ZM70.0528 15.994L69.3664 15.7243L68.9706 16.7315H70.0528V15.994ZM76.7628 18.6005H68.7548V20.0755H76.7628V18.6005ZM68.0693 19.0661L67.0133 21.7281L68.3844 22.2719L69.4404 19.6099L68.0693 19.0661ZM67.6988 21.2625H63.2328V22.7375H67.6988V21.2625ZM63.9179 22.2731L70.1439 6.65307L68.7737 6.10693L62.5477 21.7269L63.9179 22.2731ZM69.4588 7.1175H76.1908V5.6425H69.4588V7.1175ZM75.5061 6.6539L81.7541 22.2739L83.1236 21.7261L76.8756 6.1061L75.5061 6.6539ZM82.4388 21.2625H77.7968V22.7375H82.4388V21.2625ZM78.4843 21.733L77.4503 19.071L76.0754 19.605L77.1094 22.267L78.4843 21.733ZM76.1512 15.7243L73.4452 8.83826L72.0724 9.37774L74.7784 16.2637L76.1512 15.7243ZM72.0724 8.83826L69.3664 15.7243L70.7392 16.2637L73.4452 9.37774L72.0724 8.83826ZM70.0528 16.7315H75.4648V15.2565H70.0528V16.7315ZM85.3437 21.362L85.0139 22.0216L85.0167 22.023L85.3437 21.362ZM82.2197 18.48L81.5794 18.8459L82.2197 18.48ZM82.2197 9.9L81.5794 9.5341L82.2197 9.9ZM85.3437 7.018L85.0166 6.35697L85.0139 6.35836L85.3437 7.018ZM94.9357 6.776L94.6591 7.45975L94.6684 7.46335L94.9357 6.776ZM98.0597 8.998L97.4804 9.45444L97.4846 9.45977L98.0597 8.998ZM99.4457 12.386V13.1235H100.272L100.178 12.3027L99.4457 12.386ZM94.7597 12.386L94.0422 12.5568L94.1772 13.1235H94.7597V12.386ZM93.3077 10.186L92.867 10.7774L92.8746 10.7829L93.3077 10.186ZM86.9937 10.582L86.458 10.0751L86.4578 10.0753L86.9937 10.582ZM86.9937 17.82L86.4532 18.3219L86.4626 18.3317L86.9937 17.82ZM93.3957 18.128L92.939 17.5488L92.9336 17.5532L93.3957 18.128ZM94.8257 15.73V14.9925H94.2158L94.1013 15.5915L94.8257 15.73ZM99.4897 15.73L100.225 15.786L100.285 14.9925H99.4897V15.73ZM98.1697 19.272L97.5848 18.8227L97.5838 18.824L98.1697 19.272ZM95.0237 21.582L94.7459 20.8988L94.7433 20.8999L95.0237 21.582ZM90.3817 21.6585C88.5006 21.6585 86.9391 21.3285 85.6707 20.701L85.0167 22.023C86.5349 22.7742 88.3321 23.1335 90.3817 23.1335V21.6585ZM85.6735 20.7024C84.4133 20.0723 83.4855 19.2087 82.86 18.1141L81.5794 18.8459C82.3618 20.2153 83.5167 21.2731 85.0139 22.0216L85.6735 20.7024ZM82.86 18.1141C82.2286 17.0091 81.9012 15.7088 81.9012 14.19H80.4262C80.4262 15.9272 80.8028 17.4869 81.5794 18.8459L82.86 18.1141ZM81.9012 14.19C81.9012 12.6712 82.2286 11.3709 82.86 10.2659L81.5794 9.5341C80.8028 10.8931 80.4262 12.4528 80.4262 14.19H81.9012ZM82.86 10.2659C83.4855 9.17126 84.4133 8.30773 85.6735 7.67764L85.0139 6.35836C83.5167 7.10694 82.3618 8.16474 81.5794 9.5341L82.86 10.2659ZM85.6707 7.67902C86.9391 7.0515 88.5006 6.7215 90.3817 6.7215V5.2465C88.3321 5.2465 86.5349 5.60583 85.0167 6.35697L85.6707 7.67902ZM90.3817 6.7215C92.0386 6.7215 93.4593 6.97435 94.6591 7.45969L95.2122 6.09231C93.8014 5.52164 92.1861 5.2465 90.3817 5.2465V6.7215ZM94.6684 7.46335C95.8842 7.93619 96.8108 8.60451 97.4804 9.45442L98.639 8.54158C97.7833 7.45549 96.6271 6.64248 95.203 6.08865L94.6684 7.46335ZM97.4846 9.45977C98.1705 10.3139 98.5812 11.3104 98.7129 12.4693L100.178 12.3027C100.017 10.8803 99.5035 9.61811 98.6347 8.53622L97.4846 9.45977ZM99.4457 11.6485H94.7597V13.1235H99.4457V11.6485ZM95.4771 12.2152C95.2176 11.1249 94.6357 10.2383 93.7408 9.58905L92.8746 10.7829C93.4757 11.219 93.8618 11.7991 94.0422 12.5568L95.4771 12.2152ZM93.7483 9.59461C92.8404 8.91813 91.697 8.6125 90.3817 8.6125V10.0875C91.4717 10.0875 92.279 10.3392 92.867 10.7774L93.7483 9.59461ZM90.3817 8.6125C88.7636 8.6125 87.4143 9.06472 86.458 10.0751L87.5293 11.0889C88.1278 10.4566 89.0371 10.0875 90.3817 10.0875V8.6125ZM86.4578 10.0753C85.5418 11.0442 85.1122 12.3015 85.1122 13.772H86.5872C86.5872 12.6025 86.9203 11.7331 87.5296 11.0887L86.4578 10.0753ZM85.1122 13.772V14.608H86.5872V13.772H85.1122ZM85.1122 14.608C85.1122 16.0789 85.5418 17.3403 86.4533 18.3218L87.5341 17.3182C86.9202 16.657 86.5872 15.7771 86.5872 14.608H85.1122ZM86.4626 18.3317C87.4196 19.3248 88.7673 19.7675 90.3817 19.7675V18.2925C89.0334 18.2925 88.1224 17.9285 87.5247 17.3083L86.4626 18.3317ZM90.3817 19.7675C91.7579 19.7675 92.9426 19.4385 93.8578 18.7028L92.9336 17.5532C92.3528 18.0202 91.5281 18.2925 90.3817 18.2925V19.7675ZM93.8523 18.7071C94.7611 17.9906 95.3277 17.0315 95.5501 15.8685L94.1013 15.5915C93.9423 16.4232 93.5556 17.0627 92.9391 17.5489L93.8523 18.7071ZM94.8257 16.4675H99.4897V14.9925H94.8257V16.4675ZM98.7543 15.674C98.6618 16.8895 98.2694 17.9314 97.5848 18.8227L98.7546 19.7213C99.6246 18.5886 100.112 17.2692 100.225 15.786L98.7543 15.674ZM97.5838 18.824C96.9122 19.7023 95.977 20.3982 94.7459 20.8988L95.3015 22.2652C96.7397 21.6804 97.9018 20.8364 98.7555 19.72L97.5838 18.824ZM94.7433 20.8999C93.531 21.3983 92.0828 21.6585 90.3817 21.6585V23.1335C92.2299 23.1335 93.8764 22.8511 95.3041 22.2641L94.7433 20.8999ZM105.34 9.724H106.077V8.9865H105.34V9.724ZM99.5758 9.724H98.8383V10.4615H99.5758V9.724ZM99.5758 6.38V5.6425H98.8383V6.38H99.5758ZM115.614 6.38H116.351V5.6425H115.614V6.38ZM115.614 9.724V10.4615H116.351V9.724H115.614ZM109.828 9.724V8.9865H109.09V9.724H109.828ZM109.828 22V22.7375H110.565V22H109.828ZM105.34 22H104.602V22.7375H105.34V22ZM105.34 8.9865H99.5758V10.4615H105.34V8.9865ZM100.313 9.724V6.38H98.8383V9.724H100.313ZM99.5758 7.1175H115.614V5.6425H99.5758V7.1175ZM114.876 6.38V9.724H116.351V6.38H114.876ZM115.614 8.9865H109.828V10.4615H115.614V8.9865ZM109.09 9.724V22H110.565V9.724H109.09ZM109.828 21.2625H105.34V22.7375H109.828V21.2625ZM106.077 22V9.724H104.602V22H106.077ZM116.877 6.38V5.6425H116.14V6.38H116.877ZM121.365 6.38H122.103V5.6425H121.365V6.38ZM121.365 22V22.7375H122.103V22H121.365ZM116.877 22H116.14V22.7375H116.877V22ZM116.877 7.1175H121.365V5.6425H116.877V7.1175ZM120.628 6.38V22H122.103V6.38H120.628ZM121.365 21.2625H116.877V22.7375H121.365V21.2625ZM117.615 22V6.38H116.14V22H117.615ZM140.867 6.38L141.552 6.65223L141.953 5.6425H140.867V6.38ZM134.663 22V22.7375H135.163L135.348 22.2722L134.663 22ZM128.305 22L127.619 22.2731L127.805 22.7375H128.305V22ZM122.079 6.38V5.6425H120.991L121.393 6.65307L122.079 6.38ZM126.699 6.38L127.385 6.11158L127.202 5.6425H126.699V6.38ZM131.539 18.766L130.852 19.0344L131.537 20.7883L132.225 19.0355L131.539 18.766ZM136.401 6.38V5.6425H135.898L135.714 6.11052L136.401 6.38ZM140.181 6.10776L133.977 21.7278L135.348 22.2722L141.552 6.65223L140.181 6.10776ZM134.663 21.2625H128.305V22.7375H134.663V21.2625ZM128.99 21.7269L122.764 6.10693L121.393 6.65307L127.619 22.2731L128.99 21.7269ZM122.079 7.1175H126.699V5.6425H122.079V7.1175ZM126.012 6.64842L130.852 19.0344L132.225 18.4976L127.385 6.11158L126.012 6.64842ZM132.225 19.0355L137.087 6.64948L135.714 6.11052L130.852 18.4965L132.225 19.0355ZM136.401 7.1175H140.867V5.6425H136.401V7.1175ZM145.941 9.724V8.9865H145.203V9.724H145.941ZM145.941 12.496H145.203V13.2335H145.941V12.496ZM155.247 12.496H155.984V11.7585H155.247V12.496ZM155.247 15.84V16.5775H155.984V15.84H155.247ZM145.941 15.84V15.1025H145.203V15.84H145.941ZM145.941 18.656H145.203V19.3935H145.941V18.656ZM155.819 18.656H156.556V17.9185H155.819V18.656ZM155.819 22V22.7375H156.556V22H155.819ZM141.453 22H140.715V22.7375H141.453V22ZM141.453 6.38V5.6425H140.715V6.38H141.453ZM155.819 6.38H156.556V5.6425H155.819V6.38ZM155.819 9.724V10.4615H156.556V9.724H155.819ZM145.203 9.724V12.496H146.678V9.724H145.203ZM145.941 13.2335H155.247V11.7585H145.941V13.2335ZM154.509 12.496V15.84H155.984V12.496H154.509ZM155.247 15.1025H145.941V16.5775H155.247V15.1025ZM145.203 15.84V18.656H146.678V15.84H145.203ZM145.941 19.3935H155.819V17.9185H145.941V19.3935ZM155.081 18.656V22H156.556V18.656H155.081ZM155.819 21.2625H141.453V22.7375H155.819V21.2625ZM142.19 22V6.38H140.715V22H142.19ZM141.453 7.1175H155.819V5.6425H141.453V7.1175ZM155.081 6.38V9.724H156.556V6.38H155.081ZM155.819 8.9865H145.941V10.4615H155.819V8.9865Z" fill="white"/>
</g>
<defs>
<filter id="filter0_f" x="0.897324" y="0.397324" width="160.508" height="27.5851" filterUnits="userSpaceOnUse" color-interpolation-filters="sRGB">
<feFlood flood-opacity="0" result="BackgroundImageFix"/>
<feBlend mode="normal" in="SourceGraphic" in2="BackgroundImageFix" result="shape"/>
<feGaussianBlur stdDeviation="2.79328" result="effect1_foregroundBlur"/>
</filter>
<filter id="filter1_f" x="4.6217" y="4.1217" width="153.059" height="20.1364" filterUnits="userSpaceOnUse" color-interpolation-filters="sRGB">
<feFlood flood-opacity="0" result="BackgroundImageFix"/>
<feBlend mode="normal" in="SourceGraphic" in2="BackgroundImageFix" result="shape"/>
<feGaussianBlur stdDeviation="0.931094" result="effect1_foregroundBlur"/>
</filter>
<filter id="filter2_ddi" x="4.06304" y="5.42523" width="154.177" height="21.2537" filterUnits="userSpaceOnUse" color-interpolation-filters="sRGB">
<feFlood flood-opacity="0" result="BackgroundImageFix"/>
<feColorMatrix in="SourceAlpha" type="matrix" values="0 0 0 0 0 0 0 0 0 0 0 0 0 0 0 0 0 0 127 0" result="hardAlpha"/>
<feOffset dy="2.39687"/>
<feGaussianBlur stdDeviation="0.921875"/>
<feColorMatrix type="matrix" values="0 0 0 0 0 0 0 0 0 0.3 0 0 0 0 0.275 0 0 0 0.7 0"/>
<feBlend mode="multiply" in2="BackgroundImageFix" result="effect1_dropShadow"/>
<feColorMatrix in="SourceAlpha" type="matrix" values="0 0 0 0 0 0 0 0 0 0 0 0 0 0 0 0 0 0 127 0" result="hardAlpha"/>
<feOffset dy="1.86219"/>
<feGaussianBlur stdDeviation="1.21042"/>
<feColorMatrix type="matrix" values="0 0 0 0 0 0 0 0 0 0.6 0 0 0 0 0.6 0 0 0 1 0"/>
<feBlend mode="color-dodge" in2="effect1_dropShadow" result="effect2_dropShadow"/>
<feBlend mode="normal" in="SourceGraphic" in2="effect2_dropShadow" result="shape"/>
<feColorMatrix in="SourceAlpha" type="matrix" values="0 0 0 0 0 0 0 0 0 0 0 0 0 0 0 0 0 0 127 0" result="hardAlpha"/>
<feOffset dx="-0.239688" dy="0.479375"/>
<feGaussianBlur stdDeviation="0.119844"/>
<feComposite in2="hardAlpha" operator="arithmetic" k2="-1" k3="1"/>
<feColorMatrix type="matrix" values="0 0 0 0 1 0 0 0 0 1 0 0 0 0 1 0 0 0 0.5 0"/>
<feBlend mode="normal" in2="shape" result="effect3_innerShadow"/>
</filter>
<filter id="filter3_f" x="6.11514" y="5.61514" width="150.072" height="17.1495" filterUnits="userSpaceOnUse" color-interpolation-filters="sRGB">
<feFlood flood-opacity="0" result="BackgroundImageFix"/>
<feBlend mode="normal" in="SourceGraphic" in2="BackgroundImageFix" result="shape"/>
<feGaussianBlur stdDeviation="0.184375" result="effect1_foregroundBlur"/>
</filter>
<filter id="filter4_f" x="6.23805" y="5.73805" width="149.827" height="16.9037" filterUnits="userSpaceOnUse" color-interpolation-filters="sRGB">
<feFlood flood-opacity="0" result="BackgroundImageFix"/>
<feBlend mode="normal" in="SourceGraphic" in2="BackgroundImageFix" result="shape"/>
<feGaussianBlur stdDeviation="0.122917" result="effect1_foregroundBlur"/>
</filter>
</defs>
</svg>
